<?xml version="1.0" encoding="UTF-8" standalone="no"?>
<!-- Created with Inkscape (http://www.inkscape.org/) -->

<svg
   xmlns:osb="http://www.openswatchbook.org/uri/2009/osb"
   xmlns:dc="http://purl.org/dc/elements/1.1/"
   xmlns:cc="http://creativecommons.org/ns#"
   xmlns:rdf="http://www.w3.org/1999/02/22-rdf-syntax-ns#"
   xmlns:svg="http://www.w3.org/2000/svg"
   xmlns="http://www.w3.org/2000/svg"
   xmlns:sodipodi="http://sodipodi.sourceforge.net/DTD/sodipodi-0.dtd"
   xmlns:inkscape="http://www.inkscape.org/namespaces/inkscape"
   width="104.86612mm"
   height="97.317772mm"
   viewBox="0 0 104.86612 97.317772"
   version="1.1"
   id="svg1957"
   inkscape:version="0.92.3 (2405546, 2018-03-11)"
   sodipodi:docname="triangle.svg">
  <defs
     id="defs1951">
    <linearGradient
       id="linearGradient1428"
       osb:paint="solid">
      <stop
         style="stop-color:#faf3a4;stop-opacity:1;"
         offset="0"
         id="stop1426" />
    </linearGradient>
    <clipPath
       clipPathUnits="userSpaceOnUse"
       id="clipPath1617">
      <path
         sodipodi:type="star"
         style="opacity:1;fill:#000000;fill-opacity:1;fill-rule:nonzero;stroke:none;stroke-width:0.37255797;stroke-linecap:round;stroke-linejoin:round;stroke-miterlimit:4;stroke-dasharray:none;stroke-opacity:1"
         id="path1619"
         sodipodi:sides="3"
         sodipodi:cx="-465.17065"
         sodipodi:cy="908.16052"
         sodipodi:r1="121.75322"
         sodipodi:r2="60.87661"
         sodipodi:arg1="0.40024066"
         sodipodi:arg2="1.4474382"
         inkscape:flatsided="false"
         inkscape:rounded="0"
         inkscape:randomized="0"
         d="m -353.03993,955.60045 -104.64013,12.97408 -104.64014,12.97409 41.08418,-97.10806 41.08418,-97.10806 63.55596,84.13397 z"
         inkscape:transform-center-x="-7.4905637"
         inkscape:transform-center-y="-23.72002" />
    </clipPath>
  </defs>
  <sodipodi:namedview
     id="base"
     pagecolor="#ffffff"
     bordercolor="#666666"
     borderopacity="1.0"
     inkscape:pageopacity="0.0"
     inkscape:pageshadow="2"
     inkscape:zoom="1.159375"
     inkscape:cx="-4.7388786"
     inkscape:cy="109.08281"
     inkscape:document-units="mm"
     inkscape:current-layer="layer1"
     showgrid="false"
     fit-margin-top="0"
     fit-margin-left="0"
     fit-margin-right="0"
     fit-margin-bottom="0"
     inkscape:window-width="1920"
     inkscape:window-height="1025"
     inkscape:window-x="0"
     inkscape:window-y="27"
     inkscape:window-maximized="1" />
  <metadata
     id="metadata1954">
    <rdf:RDF>
      <cc:Work
         rdf:about="">
        <dc:format>image/svg+xml</dc:format>
        <dc:type
           rdf:resource="http://purl.org/dc/dcmitype/StillImage" />
        <dc:title></dc:title>
      </cc:Work>
    </rdf:RDF>
  </metadata>
  <g
     inkscape:label="Layer 1"
     inkscape:groupmode="layer"
     id="layer1"
     transform="translate(-63.042238,-80.377053)">
    <g
       id="g1469"
       style="fill:url(#linearGradient1428);fill-opacity:1"
       clip-path="url(#clipPath1617)"
       transform="matrix(0.5010798,0,0,0.5010798,344.80953,-314.13936)">
      <g
         style="fill:url(#linearGradient1428);fill-opacity:1;fill-rule:evenodd;stroke:none;stroke-width:1"
         transform="matrix(0.62403167,0,0,0.62403167,-583.53726,727.9603)"
         id="Page-1">
        <g
           style="fill:url(#linearGradient1428);fill-opacity:1"
           id="bubbles">
          <path
             style="fill:url(#linearGradient1428);fill-opacity:1"
             inkscape:connector-curvature="0"
             d="m 11,18 c 3.865993,0 7,-3.134007 7,-7 0,-3.8659933 -3.134007,-7 -7,-7 -3.8659933,0 -7,3.1340067 -7,7 0,3.865993 3.1340067,7 7,7 z m 48,25 c 3.865993,0 7,-3.134007 7,-7 0,-3.865993 -3.134007,-7 -7,-7 -3.865993,0 -7,3.134007 -7,7 0,3.865993 3.134007,7 7,7 z M 16,36 c 1.656854,0 3,-1.343146 3,-3 0,-1.656854 -1.343146,-3 -3,-3 -1.656854,0 -3,1.343146 -3,3 0,1.656854 1.343146,3 3,3 z m 63,31 c 1.656854,0 3,-1.343146 3,-3 0,-1.656854 -1.343146,-3 -3,-3 -1.656854,0 -3,1.343146 -3,3 0,1.656854 1.343146,3 3,3 z M 34,90 c 1.656854,0 3,-1.343146 3,-3 0,-1.656854 -1.343146,-3 -3,-3 -1.656854,0 -3,1.343146 -3,3 0,1.656854 1.343146,3 3,3 z M 90,14 c 1.656854,0 3,-1.343146 3,-3 0,-1.6568542 -1.343146,-3 -3,-3 -1.656854,0 -3,1.3431458 -3,3 0,1.656854 1.343146,3 3,3 z M 12,86 c 2.209139,0 4,-1.790861 4,-4 0,-2.209139 -1.790861,-4 -4,-4 -2.209139,0 -4,1.790861 -4,4 0,2.209139 1.790861,4 4,4 z M 40,21 c 2.209139,0 4,-1.790861 4,-4 0,-2.209139 -1.790861,-4 -4,-4 -2.209139,0 -4,1.790861 -4,4 0,2.209139 1.790861,4 4,4 z M 63,10 c 2.761424,0 5,-2.2385763 5,-5 0,-2.7614237 -2.238576,-5 -5,-5 -2.761424,0 -5,2.2385763 -5,5 0,2.7614237 2.238576,5 5,5 z m -6,60 c 2.209139,0 4,-1.790861 4,-4 0,-2.209139 -1.790861,-4 -4,-4 -2.209139,0 -4,1.790861 -4,4 0,2.209139 1.790861,4 4,4 z m 29,22 c 2.761424,0 5,-2.238576 5,-5 0,-2.761424 -2.238576,-5 -5,-5 -2.761424,0 -5,2.238576 -5,5 0,2.761424 2.238576,5 5,5 z M 32,63 c 2.761424,0 5,-2.238576 5,-5 0,-2.761424 -2.238576,-5 -5,-5 -2.761424,0 -5,2.238576 -5,5 0,2.761424 2.238576,5 5,5 z M 89,50 c 2.761424,0 5,-2.238576 5,-5 0,-2.761424 -2.238576,-5 -5,-5 -2.761424,0 -5,2.238576 -5,5 0,2.761424 2.238576,5 5,5 z M 80,29 c 1.104569,0 2,-0.895431 2,-2 0,-1.10457 -0.895431,-2 -2,-2 -1.104569,0 -2,0.89543 -2,2 0,1.104569 0.895431,2 2,2 z M 60,91 c 1.104569,0 2,-0.895431 2,-2 0,-1.104569 -0.895431,-2 -2,-2 -1.104569,0 -2,0.895431 -2,2 0,1.104569 0.895431,2 2,2 z M 35,41 c 1.104569,0 2,-0.895431 2,-2 0,-1.104569 -0.895431,-2 -2,-2 -1.104569,0 -2,0.895431 -2,2 0,1.104569 0.895431,2 2,2 z M 12,60 c 1.10457,0 2,-0.895431 2,-2 0,-1.104569 -0.89543,-2 -2,-2 -1.104569,0 -2,0.895431 -2,2 0,1.104569 0.895431,2 2,2 z"
             id="Combined-Shape" />
        </g>
      </g>
      <g
         id="g1207"
         transform="matrix(0.62403167,0,0,0.62403167,-583.53726,785.8415)"
         style="fill:url(#linearGradient1428);fill-opacity:1;fill-rule:evenodd;stroke:none;stroke-width:1">
        <g
           id="g1205"
           style="fill:url(#linearGradient1428);fill-opacity:1">
          <path
             style="fill:url(#linearGradient1428);fill-opacity:1"
             id="path1203"
             d="m 11,18 c 3.865993,0 7,-3.134007 7,-7 0,-3.8659933 -3.134007,-7 -7,-7 -3.8659933,0 -7,3.1340067 -7,7 0,3.865993 3.1340067,7 7,7 z m 48,25 c 3.865993,0 7,-3.134007 7,-7 0,-3.865993 -3.134007,-7 -7,-7 -3.865993,0 -7,3.134007 -7,7 0,3.865993 3.134007,7 7,7 z M 16,36 c 1.656854,0 3,-1.343146 3,-3 0,-1.656854 -1.343146,-3 -3,-3 -1.656854,0 -3,1.343146 -3,3 0,1.656854 1.343146,3 3,3 z m 63,31 c 1.656854,0 3,-1.343146 3,-3 0,-1.656854 -1.343146,-3 -3,-3 -1.656854,0 -3,1.343146 -3,3 0,1.656854 1.343146,3 3,3 z M 34,90 c 1.656854,0 3,-1.343146 3,-3 0,-1.656854 -1.343146,-3 -3,-3 -1.656854,0 -3,1.343146 -3,3 0,1.656854 1.343146,3 3,3 z M 90,14 c 1.656854,0 3,-1.343146 3,-3 0,-1.6568542 -1.343146,-3 -3,-3 -1.656854,0 -3,1.3431458 -3,3 0,1.656854 1.343146,3 3,3 z M 12,86 c 2.209139,0 4,-1.790861 4,-4 0,-2.209139 -1.790861,-4 -4,-4 -2.209139,0 -4,1.790861 -4,4 0,2.209139 1.790861,4 4,4 z M 40,21 c 2.209139,0 4,-1.790861 4,-4 0,-2.209139 -1.790861,-4 -4,-4 -2.209139,0 -4,1.790861 -4,4 0,2.209139 1.790861,4 4,4 z M 63,10 c 2.761424,0 5,-2.2385763 5,-5 0,-2.7614237 -2.238576,-5 -5,-5 -2.761424,0 -5,2.2385763 -5,5 0,2.7614237 2.238576,5 5,5 z m -6,60 c 2.209139,0 4,-1.790861 4,-4 0,-2.209139 -1.790861,-4 -4,-4 -2.209139,0 -4,1.790861 -4,4 0,2.209139 1.790861,4 4,4 z m 29,22 c 2.761424,0 5,-2.238576 5,-5 0,-2.761424 -2.238576,-5 -5,-5 -2.761424,0 -5,2.238576 -5,5 0,2.761424 2.238576,5 5,5 z M 32,63 c 2.761424,0 5,-2.238576 5,-5 0,-2.761424 -2.238576,-5 -5,-5 -2.761424,0 -5,2.238576 -5,5 0,2.761424 2.238576,5 5,5 z M 89,50 c 2.761424,0 5,-2.238576 5,-5 0,-2.761424 -2.238576,-5 -5,-5 -2.761424,0 -5,2.238576 -5,5 0,2.761424 2.238576,5 5,5 z M 80,29 c 1.104569,0 2,-0.895431 2,-2 0,-1.10457 -0.895431,-2 -2,-2 -1.104569,0 -2,0.89543 -2,2 0,1.104569 0.895431,2 2,2 z M 60,91 c 1.104569,0 2,-0.895431 2,-2 0,-1.104569 -0.895431,-2 -2,-2 -1.104569,0 -2,0.895431 -2,2 0,1.104569 0.895431,2 2,2 z M 35,41 c 1.104569,0 2,-0.895431 2,-2 0,-1.104569 -0.895431,-2 -2,-2 -1.104569,0 -2,0.895431 -2,2 0,1.104569 0.895431,2 2,2 z M 12,60 c 1.10457,0 2,-0.895431 2,-2 0,-1.104569 -0.89543,-2 -2,-2 -1.104569,0 -2,0.895431 -2,2 0,1.104569 0.895431,2 2,2 z"
             inkscape:connector-curvature="0" />
        </g>
      </g>
      <g
         style="fill:url(#linearGradient1428);fill-opacity:1;fill-rule:evenodd;stroke:none;stroke-width:1"
         transform="matrix(0.62403167,0,0,0.62403167,-583.53726,845.90689)"
         id="g1213">
        <g
           style="fill:url(#linearGradient1428);fill-opacity:1"
           id="g1211">
          <path
             style="fill:url(#linearGradient1428);fill-opacity:1"
             inkscape:connector-curvature="0"
             d="m 11,18 c 3.865993,0 7,-3.134007 7,-7 0,-3.8659933 -3.134007,-7 -7,-7 -3.8659933,0 -7,3.1340067 -7,7 0,3.865993 3.1340067,7 7,7 z m 48,25 c 3.865993,0 7,-3.134007 7,-7 0,-3.865993 -3.134007,-7 -7,-7 -3.865993,0 -7,3.134007 -7,7 0,3.865993 3.134007,7 7,7 z M 16,36 c 1.656854,0 3,-1.343146 3,-3 0,-1.656854 -1.343146,-3 -3,-3 -1.656854,0 -3,1.343146 -3,3 0,1.656854 1.343146,3 3,3 z m 63,31 c 1.656854,0 3,-1.343146 3,-3 0,-1.656854 -1.343146,-3 -3,-3 -1.656854,0 -3,1.343146 -3,3 0,1.656854 1.343146,3 3,3 z M 34,90 c 1.656854,0 3,-1.343146 3,-3 0,-1.656854 -1.343146,-3 -3,-3 -1.656854,0 -3,1.343146 -3,3 0,1.656854 1.343146,3 3,3 z M 90,14 c 1.656854,0 3,-1.343146 3,-3 0,-1.6568542 -1.343146,-3 -3,-3 -1.656854,0 -3,1.3431458 -3,3 0,1.656854 1.343146,3 3,3 z M 12,86 c 2.209139,0 4,-1.790861 4,-4 0,-2.209139 -1.790861,-4 -4,-4 -2.209139,0 -4,1.790861 -4,4 0,2.209139 1.790861,4 4,4 z M 40,21 c 2.209139,0 4,-1.790861 4,-4 0,-2.209139 -1.790861,-4 -4,-4 -2.209139,0 -4,1.790861 -4,4 0,2.209139 1.790861,4 4,4 z M 63,10 c 2.761424,0 5,-2.2385763 5,-5 0,-2.7614237 -2.238576,-5 -5,-5 -2.761424,0 -5,2.2385763 -5,5 0,2.7614237 2.238576,5 5,5 z m -6,60 c 2.209139,0 4,-1.790861 4,-4 0,-2.209139 -1.790861,-4 -4,-4 -2.209139,0 -4,1.790861 -4,4 0,2.209139 1.790861,4 4,4 z m 29,22 c 2.761424,0 5,-2.238576 5,-5 0,-2.761424 -2.238576,-5 -5,-5 -2.761424,0 -5,2.238576 -5,5 0,2.761424 2.238576,5 5,5 z M 32,63 c 2.761424,0 5,-2.238576 5,-5 0,-2.761424 -2.238576,-5 -5,-5 -2.761424,0 -5,2.238576 -5,5 0,2.761424 2.238576,5 5,5 z M 89,50 c 2.761424,0 5,-2.238576 5,-5 0,-2.761424 -2.238576,-5 -5,-5 -2.761424,0 -5,2.238576 -5,5 0,2.761424 2.238576,5 5,5 z M 80,29 c 1.104569,0 2,-0.895431 2,-2 0,-1.10457 -0.895431,-2 -2,-2 -1.104569,0 -2,0.89543 -2,2 0,1.104569 0.895431,2 2,2 z M 60,91 c 1.104569,0 2,-0.895431 2,-2 0,-1.104569 -0.895431,-2 -2,-2 -1.104569,0 -2,0.895431 -2,2 0,1.104569 0.895431,2 2,2 z M 35,41 c 1.104569,0 2,-0.895431 2,-2 0,-1.104569 -0.895431,-2 -2,-2 -1.104569,0 -2,0.895431 -2,2 0,1.104569 0.895431,2 2,2 z M 12,60 c 1.10457,0 2,-0.895431 2,-2 0,-1.104569 -0.89543,-2 -2,-2 -1.104569,0 -2,0.895431 -2,2 0,1.104569 0.895431,2 2,2 z"
             id="path1209" />
        </g>
      </g>
      <g
         id="g1219"
         transform="matrix(0.62403167,0,0,0.62403167,-523.47187,727.9603)"
         style="fill:url(#linearGradient1428);fill-opacity:1;fill-rule:evenodd;stroke:none;stroke-width:1">
        <g
           id="g1217"
           style="fill:url(#linearGradient1428);fill-opacity:1">
          <path
             style="fill:url(#linearGradient1428);fill-opacity:1"
             id="path1215"
             d="m 11,18 c 3.865993,0 7,-3.134007 7,-7 0,-3.8659933 -3.134007,-7 -7,-7 -3.8659933,0 -7,3.1340067 -7,7 0,3.865993 3.1340067,7 7,7 z m 48,25 c 3.865993,0 7,-3.134007 7,-7 0,-3.865993 -3.134007,-7 -7,-7 -3.865993,0 -7,3.134007 -7,7 0,3.865993 3.134007,7 7,7 z M 16,36 c 1.656854,0 3,-1.343146 3,-3 0,-1.656854 -1.343146,-3 -3,-3 -1.656854,0 -3,1.343146 -3,3 0,1.656854 1.343146,3 3,3 z m 63,31 c 1.656854,0 3,-1.343146 3,-3 0,-1.656854 -1.343146,-3 -3,-3 -1.656854,0 -3,1.343146 -3,3 0,1.656854 1.343146,3 3,3 z M 34,90 c 1.656854,0 3,-1.343146 3,-3 0,-1.656854 -1.343146,-3 -3,-3 -1.656854,0 -3,1.343146 -3,3 0,1.656854 1.343146,3 3,3 z M 90,14 c 1.656854,0 3,-1.343146 3,-3 0,-1.6568542 -1.343146,-3 -3,-3 -1.656854,0 -3,1.3431458 -3,3 0,1.656854 1.343146,3 3,3 z M 12,86 c 2.209139,0 4,-1.790861 4,-4 0,-2.209139 -1.790861,-4 -4,-4 -2.209139,0 -4,1.790861 -4,4 0,2.209139 1.790861,4 4,4 z M 40,21 c 2.209139,0 4,-1.790861 4,-4 0,-2.209139 -1.790861,-4 -4,-4 -2.209139,0 -4,1.790861 -4,4 0,2.209139 1.790861,4 4,4 z M 63,10 c 2.761424,0 5,-2.2385763 5,-5 0,-2.7614237 -2.238576,-5 -5,-5 -2.761424,0 -5,2.2385763 -5,5 0,2.7614237 2.238576,5 5,5 z m -6,60 c 2.209139,0 4,-1.790861 4,-4 0,-2.209139 -1.790861,-4 -4,-4 -2.209139,0 -4,1.790861 -4,4 0,2.209139 1.790861,4 4,4 z m 29,22 c 2.761424,0 5,-2.238576 5,-5 0,-2.761424 -2.238576,-5 -5,-5 -2.761424,0 -5,2.238576 -5,5 0,2.761424 2.238576,5 5,5 z M 32,63 c 2.761424,0 5,-2.238576 5,-5 0,-2.761424 -2.238576,-5 -5,-5 -2.761424,0 -5,2.238576 -5,5 0,2.761424 2.238576,5 5,5 z M 89,50 c 2.761424,0 5,-2.238576 5,-5 0,-2.761424 -2.238576,-5 -5,-5 -2.761424,0 -5,2.238576 -5,5 0,2.761424 2.238576,5 5,5 z M 80,29 c 1.104569,0 2,-0.895431 2,-2 0,-1.10457 -0.895431,-2 -2,-2 -1.104569,0 -2,0.89543 -2,2 0,1.104569 0.895431,2 2,2 z M 60,91 c 1.104569,0 2,-0.895431 2,-2 0,-1.104569 -0.895431,-2 -2,-2 -1.104569,0 -2,0.895431 -2,2 0,1.104569 0.895431,2 2,2 z M 35,41 c 1.104569,0 2,-0.895431 2,-2 0,-1.104569 -0.895431,-2 -2,-2 -1.104569,0 -2,0.895431 -2,2 0,1.104569 0.895431,2 2,2 z M 12,60 c 1.10457,0 2,-0.895431 2,-2 0,-1.104569 -0.89543,-2 -2,-2 -1.104569,0 -2,0.895431 -2,2 0,1.104569 0.895431,2 2,2 z"
             inkscape:connector-curvature="0" />
        </g>
      </g>
      <g
         style="fill:url(#linearGradient1428);fill-opacity:1;fill-rule:evenodd;stroke:none;stroke-width:1"
         transform="matrix(0.62403167,0,0,0.62403167,-523.47187,785.8415)"
         id="g1225">
        <g
           style="fill:url(#linearGradient1428);fill-opacity:1"
           id="g1223">
          <path
             style="fill:url(#linearGradient1428);fill-opacity:1"
             inkscape:connector-curvature="0"
             d="m 11,18 c 3.865993,0 7,-3.134007 7,-7 0,-3.8659933 -3.134007,-7 -7,-7 -3.8659933,0 -7,3.1340067 -7,7 0,3.865993 3.1340067,7 7,7 z m 48,25 c 3.865993,0 7,-3.134007 7,-7 0,-3.865993 -3.134007,-7 -7,-7 -3.865993,0 -7,3.134007 -7,7 0,3.865993 3.134007,7 7,7 z M 16,36 c 1.656854,0 3,-1.343146 3,-3 0,-1.656854 -1.343146,-3 -3,-3 -1.656854,0 -3,1.343146 -3,3 0,1.656854 1.343146,3 3,3 z m 63,31 c 1.656854,0 3,-1.343146 3,-3 0,-1.656854 -1.343146,-3 -3,-3 -1.656854,0 -3,1.343146 -3,3 0,1.656854 1.343146,3 3,3 z M 34,90 c 1.656854,0 3,-1.343146 3,-3 0,-1.656854 -1.343146,-3 -3,-3 -1.656854,0 -3,1.343146 -3,3 0,1.656854 1.343146,3 3,3 z M 90,14 c 1.656854,0 3,-1.343146 3,-3 0,-1.6568542 -1.343146,-3 -3,-3 -1.656854,0 -3,1.3431458 -3,3 0,1.656854 1.343146,3 3,3 z M 12,86 c 2.209139,0 4,-1.790861 4,-4 0,-2.209139 -1.790861,-4 -4,-4 -2.209139,0 -4,1.790861 -4,4 0,2.209139 1.790861,4 4,4 z M 40,21 c 2.209139,0 4,-1.790861 4,-4 0,-2.209139 -1.790861,-4 -4,-4 -2.209139,0 -4,1.790861 -4,4 0,2.209139 1.790861,4 4,4 z M 63,10 c 2.761424,0 5,-2.2385763 5,-5 0,-2.7614237 -2.238576,-5 -5,-5 -2.761424,0 -5,2.2385763 -5,5 0,2.7614237 2.238576,5 5,5 z m -6,60 c 2.209139,0 4,-1.790861 4,-4 0,-2.209139 -1.790861,-4 -4,-4 -2.209139,0 -4,1.790861 -4,4 0,2.209139 1.790861,4 4,4 z m 29,22 c 2.761424,0 5,-2.238576 5,-5 0,-2.761424 -2.238576,-5 -5,-5 -2.761424,0 -5,2.238576 -5,5 0,2.761424 2.238576,5 5,5 z M 32,63 c 2.761424,0 5,-2.238576 5,-5 0,-2.761424 -2.238576,-5 -5,-5 -2.761424,0 -5,2.238576 -5,5 0,2.761424 2.238576,5 5,5 z M 89,50 c 2.761424,0 5,-2.238576 5,-5 0,-2.761424 -2.238576,-5 -5,-5 -2.761424,0 -5,2.238576 -5,5 0,2.761424 2.238576,5 5,5 z M 80,29 c 1.104569,0 2,-0.895431 2,-2 0,-1.10457 -0.895431,-2 -2,-2 -1.104569,0 -2,0.89543 -2,2 0,1.104569 0.895431,2 2,2 z M 60,91 c 1.104569,0 2,-0.895431 2,-2 0,-1.104569 -0.895431,-2 -2,-2 -1.104569,0 -2,0.895431 -2,2 0,1.104569 0.895431,2 2,2 z M 35,41 c 1.104569,0 2,-0.895431 2,-2 0,-1.104569 -0.895431,-2 -2,-2 -1.104569,0 -2,0.895431 -2,2 0,1.104569 0.895431,2 2,2 z M 12,60 c 1.10457,0 2,-0.895431 2,-2 0,-1.104569 -0.89543,-2 -2,-2 -1.104569,0 -2,0.895431 -2,2 0,1.104569 0.895431,2 2,2 z"
             id="path1221" />
        </g>
      </g>
      <g
         id="g1231"
         transform="matrix(0.62403167,0,0,0.62403167,-523.47187,845.90689)"
         style="fill:url(#linearGradient1428);fill-opacity:1;fill-rule:evenodd;stroke:none;stroke-width:1">
        <g
           id="g1229"
           style="fill:url(#linearGradient1428);fill-opacity:1">
          <path
             style="fill:url(#linearGradient1428);fill-opacity:1"
             id="path1227"
             d="m 11,18 c 3.865993,0 7,-3.134007 7,-7 0,-3.8659933 -3.134007,-7 -7,-7 -3.8659933,0 -7,3.1340067 -7,7 0,3.865993 3.1340067,7 7,7 z m 48,25 c 3.865993,0 7,-3.134007 7,-7 0,-3.865993 -3.134007,-7 -7,-7 -3.865993,0 -7,3.134007 -7,7 0,3.865993 3.134007,7 7,7 z M 16,36 c 1.656854,0 3,-1.343146 3,-3 0,-1.656854 -1.343146,-3 -3,-3 -1.656854,0 -3,1.343146 -3,3 0,1.656854 1.343146,3 3,3 z m 63,31 c 1.656854,0 3,-1.343146 3,-3 0,-1.656854 -1.343146,-3 -3,-3 -1.656854,0 -3,1.343146 -3,3 0,1.656854 1.343146,3 3,3 z M 34,90 c 1.656854,0 3,-1.343146 3,-3 0,-1.656854 -1.343146,-3 -3,-3 -1.656854,0 -3,1.343146 -3,3 0,1.656854 1.343146,3 3,3 z M 90,14 c 1.656854,0 3,-1.343146 3,-3 0,-1.6568542 -1.343146,-3 -3,-3 -1.656854,0 -3,1.3431458 -3,3 0,1.656854 1.343146,3 3,3 z M 12,86 c 2.209139,0 4,-1.790861 4,-4 0,-2.209139 -1.790861,-4 -4,-4 -2.209139,0 -4,1.790861 -4,4 0,2.209139 1.790861,4 4,4 z M 40,21 c 2.209139,0 4,-1.790861 4,-4 0,-2.209139 -1.790861,-4 -4,-4 -2.209139,0 -4,1.790861 -4,4 0,2.209139 1.790861,4 4,4 z M 63,10 c 2.761424,0 5,-2.2385763 5,-5 0,-2.7614237 -2.238576,-5 -5,-5 -2.761424,0 -5,2.2385763 -5,5 0,2.7614237 2.238576,5 5,5 z m -6,60 c 2.209139,0 4,-1.790861 4,-4 0,-2.209139 -1.790861,-4 -4,-4 -2.209139,0 -4,1.790861 -4,4 0,2.209139 1.790861,4 4,4 z m 29,22 c 2.761424,0 5,-2.238576 5,-5 0,-2.761424 -2.238576,-5 -5,-5 -2.761424,0 -5,2.238576 -5,5 0,2.761424 2.238576,5 5,5 z M 32,63 c 2.761424,0 5,-2.238576 5,-5 0,-2.761424 -2.238576,-5 -5,-5 -2.761424,0 -5,2.238576 -5,5 0,2.761424 2.238576,5 5,5 z M 89,50 c 2.761424,0 5,-2.238576 5,-5 0,-2.761424 -2.238576,-5 -5,-5 -2.761424,0 -5,2.238576 -5,5 0,2.761424 2.238576,5 5,5 z M 80,29 c 1.104569,0 2,-0.895431 2,-2 0,-1.10457 -0.895431,-2 -2,-2 -1.104569,0 -2,0.89543 -2,2 0,1.104569 0.895431,2 2,2 z M 60,91 c 1.104569,0 2,-0.895431 2,-2 0,-1.104569 -0.895431,-2 -2,-2 -1.104569,0 -2,0.895431 -2,2 0,1.104569 0.895431,2 2,2 z M 35,41 c 1.104569,0 2,-0.895431 2,-2 0,-1.104569 -0.895431,-2 -2,-2 -1.104569,0 -2,0.895431 -2,2 0,1.104569 0.895431,2 2,2 z M 12,60 c 1.10457,0 2,-0.895431 2,-2 0,-1.104569 -0.89543,-2 -2,-2 -1.104569,0 -2,0.895431 -2,2 0,1.104569 0.895431,2 2,2 z"
             inkscape:connector-curvature="0" />
        </g>
      </g>
      <g
         id="g1237"
         transform="matrix(0.62403167,0,0,0.62403167,-464.49857,727.9603)"
         style="fill:url(#linearGradient1428);fill-opacity:1;fill-rule:evenodd;stroke:none;stroke-width:1">
        <g
           id="g1235"
           style="fill:url(#linearGradient1428);fill-opacity:1">
          <path
             style="fill:url(#linearGradient1428);fill-opacity:1"
             id="path1233"
             d="m 11,18 c 3.865993,0 7,-3.134007 7,-7 0,-3.8659933 -3.134007,-7 -7,-7 -3.8659933,0 -7,3.1340067 -7,7 0,3.865993 3.1340067,7 7,7 z m 48,25 c 3.865993,0 7,-3.134007 7,-7 0,-3.865993 -3.134007,-7 -7,-7 -3.865993,0 -7,3.134007 -7,7 0,3.865993 3.134007,7 7,7 z M 16,36 c 1.656854,0 3,-1.343146 3,-3 0,-1.656854 -1.343146,-3 -3,-3 -1.656854,0 -3,1.343146 -3,3 0,1.656854 1.343146,3 3,3 z m 63,31 c 1.656854,0 3,-1.343146 3,-3 0,-1.656854 -1.343146,-3 -3,-3 -1.656854,0 -3,1.343146 -3,3 0,1.656854 1.343146,3 3,3 z M 34,90 c 1.656854,0 3,-1.343146 3,-3 0,-1.656854 -1.343146,-3 -3,-3 -1.656854,0 -3,1.343146 -3,3 0,1.656854 1.343146,3 3,3 z M 90,14 c 1.656854,0 3,-1.343146 3,-3 0,-1.6568542 -1.343146,-3 -3,-3 -1.656854,0 -3,1.3431458 -3,3 0,1.656854 1.343146,3 3,3 z M 12,86 c 2.209139,0 4,-1.790861 4,-4 0,-2.209139 -1.790861,-4 -4,-4 -2.209139,0 -4,1.790861 -4,4 0,2.209139 1.790861,4 4,4 z M 40,21 c 2.209139,0 4,-1.790861 4,-4 0,-2.209139 -1.790861,-4 -4,-4 -2.209139,0 -4,1.790861 -4,4 0,2.209139 1.790861,4 4,4 z M 63,10 c 2.761424,0 5,-2.2385763 5,-5 0,-2.7614237 -2.238576,-5 -5,-5 -2.761424,0 -5,2.2385763 -5,5 0,2.7614237 2.238576,5 5,5 z m -6,60 c 2.209139,0 4,-1.790861 4,-4 0,-2.209139 -1.790861,-4 -4,-4 -2.209139,0 -4,1.790861 -4,4 0,2.209139 1.790861,4 4,4 z m 29,22 c 2.761424,0 5,-2.238576 5,-5 0,-2.761424 -2.238576,-5 -5,-5 -2.761424,0 -5,2.238576 -5,5 0,2.761424 2.238576,5 5,5 z M 32,63 c 2.761424,0 5,-2.238576 5,-5 0,-2.761424 -2.238576,-5 -5,-5 -2.761424,0 -5,2.238576 -5,5 0,2.761424 2.238576,5 5,5 z M 89,50 c 2.761424,0 5,-2.238576 5,-5 0,-2.761424 -2.238576,-5 -5,-5 -2.761424,0 -5,2.238576 -5,5 0,2.761424 2.238576,5 5,5 z M 80,29 c 1.104569,0 2,-0.895431 2,-2 0,-1.10457 -0.895431,-2 -2,-2 -1.104569,0 -2,0.89543 -2,2 0,1.104569 0.895431,2 2,2 z M 60,91 c 1.104569,0 2,-0.895431 2,-2 0,-1.104569 -0.895431,-2 -2,-2 -1.104569,0 -2,0.895431 -2,2 0,1.104569 0.895431,2 2,2 z M 35,41 c 1.104569,0 2,-0.895431 2,-2 0,-1.104569 -0.895431,-2 -2,-2 -1.104569,0 -2,0.895431 -2,2 0,1.104569 0.895431,2 2,2 z M 12,60 c 1.10457,0 2,-0.895431 2,-2 0,-1.104569 -0.89543,-2 -2,-2 -1.104569,0 -2,0.895431 -2,2 0,1.104569 0.895431,2 2,2 z"
             inkscape:connector-curvature="0" />
        </g>
      </g>
      <g
         style="fill:url(#linearGradient1428);fill-opacity:1;fill-rule:evenodd;stroke:none;stroke-width:1"
         transform="matrix(0.62403167,0,0,0.62403167,-464.49857,785.8415)"
         id="g1243">
        <g
           style="fill:url(#linearGradient1428);fill-opacity:1"
           id="g1241">
          <path
             style="fill:url(#linearGradient1428);fill-opacity:1"
             inkscape:connector-curvature="0"
             d="m 11,18 c 3.865993,0 7,-3.134007 7,-7 0,-3.8659933 -3.134007,-7 -7,-7 -3.8659933,0 -7,3.1340067 -7,7 0,3.865993 3.1340067,7 7,7 z m 48,25 c 3.865993,0 7,-3.134007 7,-7 0,-3.865993 -3.134007,-7 -7,-7 -3.865993,0 -7,3.134007 -7,7 0,3.865993 3.134007,7 7,7 z M 16,36 c 1.656854,0 3,-1.343146 3,-3 0,-1.656854 -1.343146,-3 -3,-3 -1.656854,0 -3,1.343146 -3,3 0,1.656854 1.343146,3 3,3 z m 63,31 c 1.656854,0 3,-1.343146 3,-3 0,-1.656854 -1.343146,-3 -3,-3 -1.656854,0 -3,1.343146 -3,3 0,1.656854 1.343146,3 3,3 z M 34,90 c 1.656854,0 3,-1.343146 3,-3 0,-1.656854 -1.343146,-3 -3,-3 -1.656854,0 -3,1.343146 -3,3 0,1.656854 1.343146,3 3,3 z M 90,14 c 1.656854,0 3,-1.343146 3,-3 0,-1.6568542 -1.343146,-3 -3,-3 -1.656854,0 -3,1.3431458 -3,3 0,1.656854 1.343146,3 3,3 z M 12,86 c 2.209139,0 4,-1.790861 4,-4 0,-2.209139 -1.790861,-4 -4,-4 -2.209139,0 -4,1.790861 -4,4 0,2.209139 1.790861,4 4,4 z M 40,21 c 2.209139,0 4,-1.790861 4,-4 0,-2.209139 -1.790861,-4 -4,-4 -2.209139,0 -4,1.790861 -4,4 0,2.209139 1.790861,4 4,4 z M 63,10 c 2.761424,0 5,-2.2385763 5,-5 0,-2.7614237 -2.238576,-5 -5,-5 -2.761424,0 -5,2.2385763 -5,5 0,2.7614237 2.238576,5 5,5 z m -6,60 c 2.209139,0 4,-1.790861 4,-4 0,-2.209139 -1.790861,-4 -4,-4 -2.209139,0 -4,1.790861 -4,4 0,2.209139 1.790861,4 4,4 z m 29,22 c 2.761424,0 5,-2.238576 5,-5 0,-2.761424 -2.238576,-5 -5,-5 -2.761424,0 -5,2.238576 -5,5 0,2.761424 2.238576,5 5,5 z M 32,63 c 2.761424,0 5,-2.238576 5,-5 0,-2.761424 -2.238576,-5 -5,-5 -2.761424,0 -5,2.238576 -5,5 0,2.761424 2.238576,5 5,5 z M 89,50 c 2.761424,0 5,-2.238576 5,-5 0,-2.761424 -2.238576,-5 -5,-5 -2.761424,0 -5,2.238576 -5,5 0,2.761424 2.238576,5 5,5 z M 80,29 c 1.104569,0 2,-0.895431 2,-2 0,-1.10457 -0.895431,-2 -2,-2 -1.104569,0 -2,0.89543 -2,2 0,1.104569 0.895431,2 2,2 z M 60,91 c 1.104569,0 2,-0.895431 2,-2 0,-1.104569 -0.895431,-2 -2,-2 -1.104569,0 -2,0.895431 -2,2 0,1.104569 0.895431,2 2,2 z M 35,41 c 1.104569,0 2,-0.895431 2,-2 0,-1.104569 -0.895431,-2 -2,-2 -1.104569,0 -2,0.895431 -2,2 0,1.104569 0.895431,2 2,2 z M 12,60 c 1.10457,0 2,-0.895431 2,-2 0,-1.104569 -0.89543,-2 -2,-2 -1.104569,0 -2,0.895431 -2,2 0,1.104569 0.895431,2 2,2 z"
             id="path1239" />
        </g>
      </g>
      <g
         id="g1249"
         transform="matrix(0.62403167,0,0,0.62403167,-464.49857,845.90689)"
         style="fill:url(#linearGradient1428);fill-opacity:1;fill-rule:evenodd;stroke:none;stroke-width:1">
        <g
           id="g1247"
           style="fill:url(#linearGradient1428);fill-opacity:1">
          <path
             style="fill:url(#linearGradient1428);fill-opacity:1"
             id="path1245"
             d="m 11,18 c 3.865993,0 7,-3.134007 7,-7 0,-3.8659933 -3.134007,-7 -7,-7 -3.8659933,0 -7,3.1340067 -7,7 0,3.865993 3.1340067,7 7,7 z m 48,25 c 3.865993,0 7,-3.134007 7,-7 0,-3.865993 -3.134007,-7 -7,-7 -3.865993,0 -7,3.134007 -7,7 0,3.865993 3.134007,7 7,7 z M 16,36 c 1.656854,0 3,-1.343146 3,-3 0,-1.656854 -1.343146,-3 -3,-3 -1.656854,0 -3,1.343146 -3,3 0,1.656854 1.343146,3 3,3 z m 63,31 c 1.656854,0 3,-1.343146 3,-3 0,-1.656854 -1.343146,-3 -3,-3 -1.656854,0 -3,1.343146 -3,3 0,1.656854 1.343146,3 3,3 z M 34,90 c 1.656854,0 3,-1.343146 3,-3 0,-1.656854 -1.343146,-3 -3,-3 -1.656854,0 -3,1.343146 -3,3 0,1.656854 1.343146,3 3,3 z M 90,14 c 1.656854,0 3,-1.343146 3,-3 0,-1.6568542 -1.343146,-3 -3,-3 -1.656854,0 -3,1.3431458 -3,3 0,1.656854 1.343146,3 3,3 z M 12,86 c 2.209139,0 4,-1.790861 4,-4 0,-2.209139 -1.790861,-4 -4,-4 -2.209139,0 -4,1.790861 -4,4 0,2.209139 1.790861,4 4,4 z M 40,21 c 2.209139,0 4,-1.790861 4,-4 0,-2.209139 -1.790861,-4 -4,-4 -2.209139,0 -4,1.790861 -4,4 0,2.209139 1.790861,4 4,4 z M 63,10 c 2.761424,0 5,-2.2385763 5,-5 0,-2.7614237 -2.238576,-5 -5,-5 -2.761424,0 -5,2.2385763 -5,5 0,2.7614237 2.238576,5 5,5 z m -6,60 c 2.209139,0 4,-1.790861 4,-4 0,-2.209139 -1.790861,-4 -4,-4 -2.209139,0 -4,1.790861 -4,4 0,2.209139 1.790861,4 4,4 z m 29,22 c 2.761424,0 5,-2.238576 5,-5 0,-2.761424 -2.238576,-5 -5,-5 -2.761424,0 -5,2.238576 -5,5 0,2.761424 2.238576,5 5,5 z M 32,63 c 2.761424,0 5,-2.238576 5,-5 0,-2.761424 -2.238576,-5 -5,-5 -2.761424,0 -5,2.238576 -5,5 0,2.761424 2.238576,5 5,5 z M 89,50 c 2.761424,0 5,-2.238576 5,-5 0,-2.761424 -2.238576,-5 -5,-5 -2.761424,0 -5,2.238576 -5,5 0,2.761424 2.238576,5 5,5 z M 80,29 c 1.104569,0 2,-0.895431 2,-2 0,-1.10457 -0.895431,-2 -2,-2 -1.104569,0 -2,0.89543 -2,2 0,1.104569 0.895431,2 2,2 z M 60,91 c 1.104569,0 2,-0.895431 2,-2 0,-1.104569 -0.895431,-2 -2,-2 -1.104569,0 -2,0.895431 -2,2 0,1.104569 0.895431,2 2,2 z M 35,41 c 1.104569,0 2,-0.895431 2,-2 0,-1.104569 -0.895431,-2 -2,-2 -1.104569,0 -2,0.895431 -2,2 0,1.104569 0.895431,2 2,2 z M 12,60 c 1.10457,0 2,-0.895431 2,-2 0,-1.104569 -0.89543,-2 -2,-2 -1.104569,0 -2,0.895431 -2,2 0,1.104569 0.895431,2 2,2 z"
             inkscape:connector-curvature="0" />
        </g>
      </g>
      <g
         style="fill:url(#linearGradient1428);fill-opacity:1;fill-rule:evenodd;stroke:none;stroke-width:1"
         transform="matrix(0.62403167,0,0,0.62403167,-404.43318,727.9603)"
         id="g1255">
        <g
           style="fill:url(#linearGradient1428);fill-opacity:1"
           id="g1253">
          <path
             style="fill:url(#linearGradient1428);fill-opacity:1"
             inkscape:connector-curvature="0"
             d="m 11,18 c 3.865993,0 7,-3.134007 7,-7 0,-3.8659933 -3.134007,-7 -7,-7 -3.8659933,0 -7,3.1340067 -7,7 0,3.865993 3.1340067,7 7,7 z m 48,25 c 3.865993,0 7,-3.134007 7,-7 0,-3.865993 -3.134007,-7 -7,-7 -3.865993,0 -7,3.134007 -7,7 0,3.865993 3.134007,7 7,7 z M 16,36 c 1.656854,0 3,-1.343146 3,-3 0,-1.656854 -1.343146,-3 -3,-3 -1.656854,0 -3,1.343146 -3,3 0,1.656854 1.343146,3 3,3 z m 63,31 c 1.656854,0 3,-1.343146 3,-3 0,-1.656854 -1.343146,-3 -3,-3 -1.656854,0 -3,1.343146 -3,3 0,1.656854 1.343146,3 3,3 z M 34,90 c 1.656854,0 3,-1.343146 3,-3 0,-1.656854 -1.343146,-3 -3,-3 -1.656854,0 -3,1.343146 -3,3 0,1.656854 1.343146,3 3,3 z M 90,14 c 1.656854,0 3,-1.343146 3,-3 0,-1.6568542 -1.343146,-3 -3,-3 -1.656854,0 -3,1.3431458 -3,3 0,1.656854 1.343146,3 3,3 z M 12,86 c 2.209139,0 4,-1.790861 4,-4 0,-2.209139 -1.790861,-4 -4,-4 -2.209139,0 -4,1.790861 -4,4 0,2.209139 1.790861,4 4,4 z M 40,21 c 2.209139,0 4,-1.790861 4,-4 0,-2.209139 -1.790861,-4 -4,-4 -2.209139,0 -4,1.790861 -4,4 0,2.209139 1.790861,4 4,4 z M 63,10 c 2.761424,0 5,-2.2385763 5,-5 0,-2.7614237 -2.238576,-5 -5,-5 -2.761424,0 -5,2.2385763 -5,5 0,2.7614237 2.238576,5 5,5 z m -6,60 c 2.209139,0 4,-1.790861 4,-4 0,-2.209139 -1.790861,-4 -4,-4 -2.209139,0 -4,1.790861 -4,4 0,2.209139 1.790861,4 4,4 z m 29,22 c 2.761424,0 5,-2.238576 5,-5 0,-2.761424 -2.238576,-5 -5,-5 -2.761424,0 -5,2.238576 -5,5 0,2.761424 2.238576,5 5,5 z M 32,63 c 2.761424,0 5,-2.238576 5,-5 0,-2.761424 -2.238576,-5 -5,-5 -2.761424,0 -5,2.238576 -5,5 0,2.761424 2.238576,5 5,5 z M 89,50 c 2.761424,0 5,-2.238576 5,-5 0,-2.761424 -2.238576,-5 -5,-5 -2.761424,0 -5,2.238576 -5,5 0,2.761424 2.238576,5 5,5 z M 80,29 c 1.104569,0 2,-0.895431 2,-2 0,-1.10457 -0.895431,-2 -2,-2 -1.104569,0 -2,0.89543 -2,2 0,1.104569 0.895431,2 2,2 z M 60,91 c 1.104569,0 2,-0.895431 2,-2 0,-1.104569 -0.895431,-2 -2,-2 -1.104569,0 -2,0.895431 -2,2 0,1.104569 0.895431,2 2,2 z M 35,41 c 1.104569,0 2,-0.895431 2,-2 0,-1.104569 -0.895431,-2 -2,-2 -1.104569,0 -2,0.895431 -2,2 0,1.104569 0.895431,2 2,2 z M 12,60 c 1.10457,0 2,-0.895431 2,-2 0,-1.104569 -0.89543,-2 -2,-2 -1.104569,0 -2,0.895431 -2,2 0,1.104569 0.895431,2 2,2 z"
             id="path1251" />
        </g>
      </g>
      <g
         id="g1261"
         transform="matrix(0.62403167,0,0,0.62403167,-404.43318,785.8415)"
         style="fill:url(#linearGradient1428);fill-opacity:1;fill-rule:evenodd;stroke:none;stroke-width:1">
        <g
           id="g1259"
           style="fill:url(#linearGradient1428);fill-opacity:1">
          <path
             style="fill:url(#linearGradient1428);fill-opacity:1"
             id="path1257"
             d="m 11,18 c 3.865993,0 7,-3.134007 7,-7 0,-3.8659933 -3.134007,-7 -7,-7 -3.8659933,0 -7,3.1340067 -7,7 0,3.865993 3.1340067,7 7,7 z m 48,25 c 3.865993,0 7,-3.134007 7,-7 0,-3.865993 -3.134007,-7 -7,-7 -3.865993,0 -7,3.134007 -7,7 0,3.865993 3.134007,7 7,7 z M 16,36 c 1.656854,0 3,-1.343146 3,-3 0,-1.656854 -1.343146,-3 -3,-3 -1.656854,0 -3,1.343146 -3,3 0,1.656854 1.343146,3 3,3 z m 63,31 c 1.656854,0 3,-1.343146 3,-3 0,-1.656854 -1.343146,-3 -3,-3 -1.656854,0 -3,1.343146 -3,3 0,1.656854 1.343146,3 3,3 z M 34,90 c 1.656854,0 3,-1.343146 3,-3 0,-1.656854 -1.343146,-3 -3,-3 -1.656854,0 -3,1.343146 -3,3 0,1.656854 1.343146,3 3,3 z M 90,14 c 1.656854,0 3,-1.343146 3,-3 0,-1.6568542 -1.343146,-3 -3,-3 -1.656854,0 -3,1.3431458 -3,3 0,1.656854 1.343146,3 3,3 z M 12,86 c 2.209139,0 4,-1.790861 4,-4 0,-2.209139 -1.790861,-4 -4,-4 -2.209139,0 -4,1.790861 -4,4 0,2.209139 1.790861,4 4,4 z M 40,21 c 2.209139,0 4,-1.790861 4,-4 0,-2.209139 -1.790861,-4 -4,-4 -2.209139,0 -4,1.790861 -4,4 0,2.209139 1.790861,4 4,4 z M 63,10 c 2.761424,0 5,-2.2385763 5,-5 0,-2.7614237 -2.238576,-5 -5,-5 -2.761424,0 -5,2.2385763 -5,5 0,2.7614237 2.238576,5 5,5 z m -6,60 c 2.209139,0 4,-1.790861 4,-4 0,-2.209139 -1.790861,-4 -4,-4 -2.209139,0 -4,1.790861 -4,4 0,2.209139 1.790861,4 4,4 z m 29,22 c 2.761424,0 5,-2.238576 5,-5 0,-2.761424 -2.238576,-5 -5,-5 -2.761424,0 -5,2.238576 -5,5 0,2.761424 2.238576,5 5,5 z M 32,63 c 2.761424,0 5,-2.238576 5,-5 0,-2.761424 -2.238576,-5 -5,-5 -2.761424,0 -5,2.238576 -5,5 0,2.761424 2.238576,5 5,5 z M 89,50 c 2.761424,0 5,-2.238576 5,-5 0,-2.761424 -2.238576,-5 -5,-5 -2.761424,0 -5,2.238576 -5,5 0,2.761424 2.238576,5 5,5 z M 80,29 c 1.104569,0 2,-0.895431 2,-2 0,-1.10457 -0.895431,-2 -2,-2 -1.104569,0 -2,0.89543 -2,2 0,1.104569 0.895431,2 2,2 z M 60,91 c 1.104569,0 2,-0.895431 2,-2 0,-1.104569 -0.895431,-2 -2,-2 -1.104569,0 -2,0.895431 -2,2 0,1.104569 0.895431,2 2,2 z M 35,41 c 1.104569,0 2,-0.895431 2,-2 0,-1.104569 -0.895431,-2 -2,-2 -1.104569,0 -2,0.895431 -2,2 0,1.104569 0.895431,2 2,2 z M 12,60 c 1.10457,0 2,-0.895431 2,-2 0,-1.104569 -0.89543,-2 -2,-2 -1.104569,0 -2,0.895431 -2,2 0,1.104569 0.895431,2 2,2 z"
             inkscape:connector-curvature="0" />
        </g>
      </g>
      <g
         style="fill:url(#linearGradient1428);fill-opacity:1;fill-rule:evenodd;stroke:none;stroke-width:1"
         transform="matrix(0.62403167,0,0,0.62403167,-404.43318,845.90689)"
         id="g1267">
        <g
           style="fill:url(#linearGradient1428);fill-opacity:1"
           id="g1265">
          <path
             style="fill:url(#linearGradient1428);fill-opacity:1"
             inkscape:connector-curvature="0"
             d="m 11,18 c 3.865993,0 7,-3.134007 7,-7 0,-3.8659933 -3.134007,-7 -7,-7 -3.8659933,0 -7,3.1340067 -7,7 0,3.865993 3.1340067,7 7,7 z m 48,25 c 3.865993,0 7,-3.134007 7,-7 0,-3.865993 -3.134007,-7 -7,-7 -3.865993,0 -7,3.134007 -7,7 0,3.865993 3.134007,7 7,7 z M 16,36 c 1.656854,0 3,-1.343146 3,-3 0,-1.656854 -1.343146,-3 -3,-3 -1.656854,0 -3,1.343146 -3,3 0,1.656854 1.343146,3 3,3 z m 63,31 c 1.656854,0 3,-1.343146 3,-3 0,-1.656854 -1.343146,-3 -3,-3 -1.656854,0 -3,1.343146 -3,3 0,1.656854 1.343146,3 3,3 z M 34,90 c 1.656854,0 3,-1.343146 3,-3 0,-1.656854 -1.343146,-3 -3,-3 -1.656854,0 -3,1.343146 -3,3 0,1.656854 1.343146,3 3,3 z M 90,14 c 1.656854,0 3,-1.343146 3,-3 0,-1.6568542 -1.343146,-3 -3,-3 -1.656854,0 -3,1.3431458 -3,3 0,1.656854 1.343146,3 3,3 z M 12,86 c 2.209139,0 4,-1.790861 4,-4 0,-2.209139 -1.790861,-4 -4,-4 -2.209139,0 -4,1.790861 -4,4 0,2.209139 1.790861,4 4,4 z M 40,21 c 2.209139,0 4,-1.790861 4,-4 0,-2.209139 -1.790861,-4 -4,-4 -2.209139,0 -4,1.790861 -4,4 0,2.209139 1.790861,4 4,4 z M 63,10 c 2.761424,0 5,-2.2385763 5,-5 0,-2.7614237 -2.238576,-5 -5,-5 -2.761424,0 -5,2.2385763 -5,5 0,2.7614237 2.238576,5 5,5 z m -6,60 c 2.209139,0 4,-1.790861 4,-4 0,-2.209139 -1.790861,-4 -4,-4 -2.209139,0 -4,1.790861 -4,4 0,2.209139 1.790861,4 4,4 z m 29,22 c 2.761424,0 5,-2.238576 5,-5 0,-2.761424 -2.238576,-5 -5,-5 -2.761424,0 -5,2.238576 -5,5 0,2.761424 2.238576,5 5,5 z M 32,63 c 2.761424,0 5,-2.238576 5,-5 0,-2.761424 -2.238576,-5 -5,-5 -2.761424,0 -5,2.238576 -5,5 0,2.761424 2.238576,5 5,5 z M 89,50 c 2.761424,0 5,-2.238576 5,-5 0,-2.761424 -2.238576,-5 -5,-5 -2.761424,0 -5,2.238576 -5,5 0,2.761424 2.238576,5 5,5 z M 80,29 c 1.104569,0 2,-0.895431 2,-2 0,-1.10457 -0.895431,-2 -2,-2 -1.104569,0 -2,0.89543 -2,2 0,1.104569 0.895431,2 2,2 z M 60,91 c 1.104569,0 2,-0.895431 2,-2 0,-1.104569 -0.895431,-2 -2,-2 -1.104569,0 -2,0.895431 -2,2 0,1.104569 0.895431,2 2,2 z M 35,41 c 1.104569,0 2,-0.895431 2,-2 0,-1.104569 -0.895431,-2 -2,-2 -1.104569,0 -2,0.895431 -2,2 0,1.104569 0.895431,2 2,2 z M 12,60 c 1.10457,0 2,-0.895431 2,-2 0,-1.104569 -0.89543,-2 -2,-2 -1.104569,0 -2,0.895431 -2,2 0,1.104569 0.895431,2 2,2 z"
             id="path1263" />
        </g>
      </g>
      <g
         id="g1273"
         transform="matrix(0.62403167,0,0,0.62403167,-583.53726,908.15648)"
         style="fill:url(#linearGradient1428);fill-opacity:1;fill-rule:evenodd;stroke:none;stroke-width:1">
        <g
           id="g1271"
           style="fill:url(#linearGradient1428);fill-opacity:1">
          <path
             style="fill:url(#linearGradient1428);fill-opacity:1"
             id="path1269"
             d="m 11,18 c 3.865993,0 7,-3.134007 7,-7 0,-3.8659933 -3.134007,-7 -7,-7 -3.8659933,0 -7,3.1340067 -7,7 0,3.865993 3.1340067,7 7,7 z m 48,25 c 3.865993,0 7,-3.134007 7,-7 0,-3.865993 -3.134007,-7 -7,-7 -3.865993,0 -7,3.134007 -7,7 0,3.865993 3.134007,7 7,7 z M 16,36 c 1.656854,0 3,-1.343146 3,-3 0,-1.656854 -1.343146,-3 -3,-3 -1.656854,0 -3,1.343146 -3,3 0,1.656854 1.343146,3 3,3 z m 63,31 c 1.656854,0 3,-1.343146 3,-3 0,-1.656854 -1.343146,-3 -3,-3 -1.656854,0 -3,1.343146 -3,3 0,1.656854 1.343146,3 3,3 z M 34,90 c 1.656854,0 3,-1.343146 3,-3 0,-1.656854 -1.343146,-3 -3,-3 -1.656854,0 -3,1.343146 -3,3 0,1.656854 1.343146,3 3,3 z M 90,14 c 1.656854,0 3,-1.343146 3,-3 0,-1.6568542 -1.343146,-3 -3,-3 -1.656854,0 -3,1.3431458 -3,3 0,1.656854 1.343146,3 3,3 z M 12,86 c 2.209139,0 4,-1.790861 4,-4 0,-2.209139 -1.790861,-4 -4,-4 -2.209139,0 -4,1.790861 -4,4 0,2.209139 1.790861,4 4,4 z M 40,21 c 2.209139,0 4,-1.790861 4,-4 0,-2.209139 -1.790861,-4 -4,-4 -2.209139,0 -4,1.790861 -4,4 0,2.209139 1.790861,4 4,4 z M 63,10 c 2.761424,0 5,-2.2385763 5,-5 0,-2.7614237 -2.238576,-5 -5,-5 -2.761424,0 -5,2.2385763 -5,5 0,2.7614237 2.238576,5 5,5 z m -6,60 c 2.209139,0 4,-1.790861 4,-4 0,-2.209139 -1.790861,-4 -4,-4 -2.209139,0 -4,1.790861 -4,4 0,2.209139 1.790861,4 4,4 z m 29,22 c 2.761424,0 5,-2.238576 5,-5 0,-2.761424 -2.238576,-5 -5,-5 -2.761424,0 -5,2.238576 -5,5 0,2.761424 2.238576,5 5,5 z M 32,63 c 2.761424,0 5,-2.238576 5,-5 0,-2.761424 -2.238576,-5 -5,-5 -2.761424,0 -5,2.238576 -5,5 0,2.761424 2.238576,5 5,5 z M 89,50 c 2.761424,0 5,-2.238576 5,-5 0,-2.761424 -2.238576,-5 -5,-5 -2.761424,0 -5,2.238576 -5,5 0,2.761424 2.238576,5 5,5 z M 80,29 c 1.104569,0 2,-0.895431 2,-2 0,-1.10457 -0.895431,-2 -2,-2 -1.104569,0 -2,0.89543 -2,2 0,1.104569 0.895431,2 2,2 z M 60,91 c 1.104569,0 2,-0.895431 2,-2 0,-1.104569 -0.895431,-2 -2,-2 -1.104569,0 -2,0.895431 -2,2 0,1.104569 0.895431,2 2,2 z M 35,41 c 1.104569,0 2,-0.895431 2,-2 0,-1.104569 -0.895431,-2 -2,-2 -1.104569,0 -2,0.895431 -2,2 0,1.104569 0.895431,2 2,2 z M 12,60 c 1.10457,0 2,-0.895431 2,-2 0,-1.104569 -0.89543,-2 -2,-2 -1.104569,0 -2,0.895431 -2,2 0,1.104569 0.895431,2 2,2 z"
             inkscape:connector-curvature="0" />
        </g>
      </g>
      <g
         style="fill:url(#linearGradient1428);fill-opacity:1;fill-rule:evenodd;stroke:none;stroke-width:1"
         transform="matrix(0.62403167,0,0,0.62403167,-583.53726,966.03768)"
         id="g1279">
        <g
           style="fill:url(#linearGradient1428);fill-opacity:1"
           id="g1277">
          <path
             style="fill:url(#linearGradient1428);fill-opacity:1"
             inkscape:connector-curvature="0"
             d="m 11,18 c 3.865993,0 7,-3.134007 7,-7 0,-3.8659933 -3.134007,-7 -7,-7 -3.8659933,0 -7,3.1340067 -7,7 0,3.865993 3.1340067,7 7,7 z m 48,25 c 3.865993,0 7,-3.134007 7,-7 0,-3.865993 -3.134007,-7 -7,-7 -3.865993,0 -7,3.134007 -7,7 0,3.865993 3.134007,7 7,7 z M 16,36 c 1.656854,0 3,-1.343146 3,-3 0,-1.656854 -1.343146,-3 -3,-3 -1.656854,0 -3,1.343146 -3,3 0,1.656854 1.343146,3 3,3 z m 63,31 c 1.656854,0 3,-1.343146 3,-3 0,-1.656854 -1.343146,-3 -3,-3 -1.656854,0 -3,1.343146 -3,3 0,1.656854 1.343146,3 3,3 z M 34,90 c 1.656854,0 3,-1.343146 3,-3 0,-1.656854 -1.343146,-3 -3,-3 -1.656854,0 -3,1.343146 -3,3 0,1.656854 1.343146,3 3,3 z M 90,14 c 1.656854,0 3,-1.343146 3,-3 0,-1.6568542 -1.343146,-3 -3,-3 -1.656854,0 -3,1.3431458 -3,3 0,1.656854 1.343146,3 3,3 z M 12,86 c 2.209139,0 4,-1.790861 4,-4 0,-2.209139 -1.790861,-4 -4,-4 -2.209139,0 -4,1.790861 -4,4 0,2.209139 1.790861,4 4,4 z M 40,21 c 2.209139,0 4,-1.790861 4,-4 0,-2.209139 -1.790861,-4 -4,-4 -2.209139,0 -4,1.790861 -4,4 0,2.209139 1.790861,4 4,4 z M 63,10 c 2.761424,0 5,-2.2385763 5,-5 0,-2.7614237 -2.238576,-5 -5,-5 -2.761424,0 -5,2.2385763 -5,5 0,2.7614237 2.238576,5 5,5 z m -6,60 c 2.209139,0 4,-1.790861 4,-4 0,-2.209139 -1.790861,-4 -4,-4 -2.209139,0 -4,1.790861 -4,4 0,2.209139 1.790861,4 4,4 z m 29,22 c 2.761424,0 5,-2.238576 5,-5 0,-2.761424 -2.238576,-5 -5,-5 -2.761424,0 -5,2.238576 -5,5 0,2.761424 2.238576,5 5,5 z M 32,63 c 2.761424,0 5,-2.238576 5,-5 0,-2.761424 -2.238576,-5 -5,-5 -2.761424,0 -5,2.238576 -5,5 0,2.761424 2.238576,5 5,5 z M 89,50 c 2.761424,0 5,-2.238576 5,-5 0,-2.761424 -2.238576,-5 -5,-5 -2.761424,0 -5,2.238576 -5,5 0,2.761424 2.238576,5 5,5 z M 80,29 c 1.104569,0 2,-0.895431 2,-2 0,-1.10457 -0.895431,-2 -2,-2 -1.104569,0 -2,0.89543 -2,2 0,1.104569 0.895431,2 2,2 z M 60,91 c 1.104569,0 2,-0.895431 2,-2 0,-1.104569 -0.895431,-2 -2,-2 -1.104569,0 -2,0.895431 -2,2 0,1.104569 0.895431,2 2,2 z M 35,41 c 1.104569,0 2,-0.895431 2,-2 0,-1.104569 -0.895431,-2 -2,-2 -1.104569,0 -2,0.895431 -2,2 0,1.104569 0.895431,2 2,2 z M 12,60 c 1.10457,0 2,-0.895431 2,-2 0,-1.104569 -0.89543,-2 -2,-2 -1.104569,0 -2,0.895431 -2,2 0,1.104569 0.895431,2 2,2 z"
             id="path1275" />
        </g>
      </g>
      <g
         id="g1285"
         transform="matrix(0.62403167,0,0,0.62403167,-583.53726,1026.1031)"
         style="fill:url(#linearGradient1428);fill-opacity:1;fill-rule:evenodd;stroke:none;stroke-width:1">
        <g
           id="g1283"
           style="fill:url(#linearGradient1428);fill-opacity:1">
          <path
             style="fill:url(#linearGradient1428);fill-opacity:1"
             id="path1281"
             d="m 11,18 c 3.865993,0 7,-3.134007 7,-7 0,-3.8659933 -3.134007,-7 -7,-7 -3.8659933,0 -7,3.1340067 -7,7 0,3.865993 3.1340067,7 7,7 z m 48,25 c 3.865993,0 7,-3.134007 7,-7 0,-3.865993 -3.134007,-7 -7,-7 -3.865993,0 -7,3.134007 -7,7 0,3.865993 3.134007,7 7,7 z M 16,36 c 1.656854,0 3,-1.343146 3,-3 0,-1.656854 -1.343146,-3 -3,-3 -1.656854,0 -3,1.343146 -3,3 0,1.656854 1.343146,3 3,3 z m 63,31 c 1.656854,0 3,-1.343146 3,-3 0,-1.656854 -1.343146,-3 -3,-3 -1.656854,0 -3,1.343146 -3,3 0,1.656854 1.343146,3 3,3 z M 34,90 c 1.656854,0 3,-1.343146 3,-3 0,-1.656854 -1.343146,-3 -3,-3 -1.656854,0 -3,1.343146 -3,3 0,1.656854 1.343146,3 3,3 z M 90,14 c 1.656854,0 3,-1.343146 3,-3 0,-1.6568542 -1.343146,-3 -3,-3 -1.656854,0 -3,1.3431458 -3,3 0,1.656854 1.343146,3 3,3 z M 12,86 c 2.209139,0 4,-1.790861 4,-4 0,-2.209139 -1.790861,-4 -4,-4 -2.209139,0 -4,1.790861 -4,4 0,2.209139 1.790861,4 4,4 z M 40,21 c 2.209139,0 4,-1.790861 4,-4 0,-2.209139 -1.790861,-4 -4,-4 -2.209139,0 -4,1.790861 -4,4 0,2.209139 1.790861,4 4,4 z M 63,10 c 2.761424,0 5,-2.2385763 5,-5 0,-2.7614237 -2.238576,-5 -5,-5 -2.761424,0 -5,2.2385763 -5,5 0,2.7614237 2.238576,5 5,5 z m -6,60 c 2.209139,0 4,-1.790861 4,-4 0,-2.209139 -1.790861,-4 -4,-4 -2.209139,0 -4,1.790861 -4,4 0,2.209139 1.790861,4 4,4 z m 29,22 c 2.761424,0 5,-2.238576 5,-5 0,-2.761424 -2.238576,-5 -5,-5 -2.761424,0 -5,2.238576 -5,5 0,2.761424 2.238576,5 5,5 z M 32,63 c 2.761424,0 5,-2.238576 5,-5 0,-2.761424 -2.238576,-5 -5,-5 -2.761424,0 -5,2.238576 -5,5 0,2.761424 2.238576,5 5,5 z M 89,50 c 2.761424,0 5,-2.238576 5,-5 0,-2.761424 -2.238576,-5 -5,-5 -2.761424,0 -5,2.238576 -5,5 0,2.761424 2.238576,5 5,5 z M 80,29 c 1.104569,0 2,-0.895431 2,-2 0,-1.10457 -0.895431,-2 -2,-2 -1.104569,0 -2,0.89543 -2,2 0,1.104569 0.895431,2 2,2 z M 60,91 c 1.104569,0 2,-0.895431 2,-2 0,-1.104569 -0.895431,-2 -2,-2 -1.104569,0 -2,0.895431 -2,2 0,1.104569 0.895431,2 2,2 z M 35,41 c 1.104569,0 2,-0.895431 2,-2 0,-1.104569 -0.895431,-2 -2,-2 -1.104569,0 -2,0.895431 -2,2 0,1.104569 0.895431,2 2,2 z M 12,60 c 1.10457,0 2,-0.895431 2,-2 0,-1.104569 -0.89543,-2 -2,-2 -1.104569,0 -2,0.895431 -2,2 0,1.104569 0.895431,2 2,2 z"
             inkscape:connector-curvature="0" />
        </g>
      </g>
      <g
         style="fill:url(#linearGradient1428);fill-opacity:1;fill-rule:evenodd;stroke:none;stroke-width:1"
         transform="matrix(0.62403167,0,0,0.62403167,-523.47187,908.15648)"
         id="g1291">
        <g
           style="fill:url(#linearGradient1428);fill-opacity:1"
           id="g1289">
          <path
             style="fill:url(#linearGradient1428);fill-opacity:1"
             inkscape:connector-curvature="0"
             d="m 11,18 c 3.865993,0 7,-3.134007 7,-7 0,-3.8659933 -3.134007,-7 -7,-7 -3.8659933,0 -7,3.1340067 -7,7 0,3.865993 3.1340067,7 7,7 z m 48,25 c 3.865993,0 7,-3.134007 7,-7 0,-3.865993 -3.134007,-7 -7,-7 -3.865993,0 -7,3.134007 -7,7 0,3.865993 3.134007,7 7,7 z M 16,36 c 1.656854,0 3,-1.343146 3,-3 0,-1.656854 -1.343146,-3 -3,-3 -1.656854,0 -3,1.343146 -3,3 0,1.656854 1.343146,3 3,3 z m 63,31 c 1.656854,0 3,-1.343146 3,-3 0,-1.656854 -1.343146,-3 -3,-3 -1.656854,0 -3,1.343146 -3,3 0,1.656854 1.343146,3 3,3 z M 34,90 c 1.656854,0 3,-1.343146 3,-3 0,-1.656854 -1.343146,-3 -3,-3 -1.656854,0 -3,1.343146 -3,3 0,1.656854 1.343146,3 3,3 z M 90,14 c 1.656854,0 3,-1.343146 3,-3 0,-1.6568542 -1.343146,-3 -3,-3 -1.656854,0 -3,1.3431458 -3,3 0,1.656854 1.343146,3 3,3 z M 12,86 c 2.209139,0 4,-1.790861 4,-4 0,-2.209139 -1.790861,-4 -4,-4 -2.209139,0 -4,1.790861 -4,4 0,2.209139 1.790861,4 4,4 z M 40,21 c 2.209139,0 4,-1.790861 4,-4 0,-2.209139 -1.790861,-4 -4,-4 -2.209139,0 -4,1.790861 -4,4 0,2.209139 1.790861,4 4,4 z M 63,10 c 2.761424,0 5,-2.2385763 5,-5 0,-2.7614237 -2.238576,-5 -5,-5 -2.761424,0 -5,2.2385763 -5,5 0,2.7614237 2.238576,5 5,5 z m -6,60 c 2.209139,0 4,-1.790861 4,-4 0,-2.209139 -1.790861,-4 -4,-4 -2.209139,0 -4,1.790861 -4,4 0,2.209139 1.790861,4 4,4 z m 29,22 c 2.761424,0 5,-2.238576 5,-5 0,-2.761424 -2.238576,-5 -5,-5 -2.761424,0 -5,2.238576 -5,5 0,2.761424 2.238576,5 5,5 z M 32,63 c 2.761424,0 5,-2.238576 5,-5 0,-2.761424 -2.238576,-5 -5,-5 -2.761424,0 -5,2.238576 -5,5 0,2.761424 2.238576,5 5,5 z M 89,50 c 2.761424,0 5,-2.238576 5,-5 0,-2.761424 -2.238576,-5 -5,-5 -2.761424,0 -5,2.238576 -5,5 0,2.761424 2.238576,5 5,5 z M 80,29 c 1.104569,0 2,-0.895431 2,-2 0,-1.10457 -0.895431,-2 -2,-2 -1.104569,0 -2,0.89543 -2,2 0,1.104569 0.895431,2 2,2 z M 60,91 c 1.104569,0 2,-0.895431 2,-2 0,-1.104569 -0.895431,-2 -2,-2 -1.104569,0 -2,0.895431 -2,2 0,1.104569 0.895431,2 2,2 z M 35,41 c 1.104569,0 2,-0.895431 2,-2 0,-1.104569 -0.895431,-2 -2,-2 -1.104569,0 -2,0.895431 -2,2 0,1.104569 0.895431,2 2,2 z M 12,60 c 1.10457,0 2,-0.895431 2,-2 0,-1.104569 -0.89543,-2 -2,-2 -1.104569,0 -2,0.895431 -2,2 0,1.104569 0.895431,2 2,2 z"
             id="path1287" />
        </g>
      </g>
      <g
         id="g1297"
         transform="matrix(0.62403167,0,0,0.62403167,-523.47187,966.03768)"
         style="fill:url(#linearGradient1428);fill-opacity:1;fill-rule:evenodd;stroke:none;stroke-width:1">
        <g
           id="g1295"
           style="fill:url(#linearGradient1428);fill-opacity:1">
          <path
             style="fill:url(#linearGradient1428);fill-opacity:1"
             id="path1293"
             d="m 11,18 c 3.865993,0 7,-3.134007 7,-7 0,-3.8659933 -3.134007,-7 -7,-7 -3.8659933,0 -7,3.1340067 -7,7 0,3.865993 3.1340067,7 7,7 z m 48,25 c 3.865993,0 7,-3.134007 7,-7 0,-3.865993 -3.134007,-7 -7,-7 -3.865993,0 -7,3.134007 -7,7 0,3.865993 3.134007,7 7,7 z M 16,36 c 1.656854,0 3,-1.343146 3,-3 0,-1.656854 -1.343146,-3 -3,-3 -1.656854,0 -3,1.343146 -3,3 0,1.656854 1.343146,3 3,3 z m 63,31 c 1.656854,0 3,-1.343146 3,-3 0,-1.656854 -1.343146,-3 -3,-3 -1.656854,0 -3,1.343146 -3,3 0,1.656854 1.343146,3 3,3 z M 34,90 c 1.656854,0 3,-1.343146 3,-3 0,-1.656854 -1.343146,-3 -3,-3 -1.656854,0 -3,1.343146 -3,3 0,1.656854 1.343146,3 3,3 z M 90,14 c 1.656854,0 3,-1.343146 3,-3 0,-1.6568542 -1.343146,-3 -3,-3 -1.656854,0 -3,1.3431458 -3,3 0,1.656854 1.343146,3 3,3 z M 12,86 c 2.209139,0 4,-1.790861 4,-4 0,-2.209139 -1.790861,-4 -4,-4 -2.209139,0 -4,1.790861 -4,4 0,2.209139 1.790861,4 4,4 z M 40,21 c 2.209139,0 4,-1.790861 4,-4 0,-2.209139 -1.790861,-4 -4,-4 -2.209139,0 -4,1.790861 -4,4 0,2.209139 1.790861,4 4,4 z M 63,10 c 2.761424,0 5,-2.2385763 5,-5 0,-2.7614237 -2.238576,-5 -5,-5 -2.761424,0 -5,2.2385763 -5,5 0,2.7614237 2.238576,5 5,5 z m -6,60 c 2.209139,0 4,-1.790861 4,-4 0,-2.209139 -1.790861,-4 -4,-4 -2.209139,0 -4,1.790861 -4,4 0,2.209139 1.790861,4 4,4 z m 29,22 c 2.761424,0 5,-2.238576 5,-5 0,-2.761424 -2.238576,-5 -5,-5 -2.761424,0 -5,2.238576 -5,5 0,2.761424 2.238576,5 5,5 z M 32,63 c 2.761424,0 5,-2.238576 5,-5 0,-2.761424 -2.238576,-5 -5,-5 -2.761424,0 -5,2.238576 -5,5 0,2.761424 2.238576,5 5,5 z M 89,50 c 2.761424,0 5,-2.238576 5,-5 0,-2.761424 -2.238576,-5 -5,-5 -2.761424,0 -5,2.238576 -5,5 0,2.761424 2.238576,5 5,5 z M 80,29 c 1.104569,0 2,-0.895431 2,-2 0,-1.10457 -0.895431,-2 -2,-2 -1.104569,0 -2,0.89543 -2,2 0,1.104569 0.895431,2 2,2 z M 60,91 c 1.104569,0 2,-0.895431 2,-2 0,-1.104569 -0.895431,-2 -2,-2 -1.104569,0 -2,0.895431 -2,2 0,1.104569 0.895431,2 2,2 z M 35,41 c 1.104569,0 2,-0.895431 2,-2 0,-1.104569 -0.895431,-2 -2,-2 -1.104569,0 -2,0.895431 -2,2 0,1.104569 0.895431,2 2,2 z M 12,60 c 1.10457,0 2,-0.895431 2,-2 0,-1.104569 -0.89543,-2 -2,-2 -1.104569,0 -2,0.895431 -2,2 0,1.104569 0.895431,2 2,2 z"
             inkscape:connector-curvature="0" />
        </g>
      </g>
      <g
         style="fill:url(#linearGradient1428);fill-opacity:1;fill-rule:evenodd;stroke:none;stroke-width:1"
         transform="matrix(0.62403167,0,0,0.62403167,-523.47187,1026.1031)"
         id="g1303">
        <g
           style="fill:url(#linearGradient1428);fill-opacity:1"
           id="g1301">
          <path
             style="fill:url(#linearGradient1428);fill-opacity:1"
             inkscape:connector-curvature="0"
             d="m 11,18 c 3.865993,0 7,-3.134007 7,-7 0,-3.8659933 -3.134007,-7 -7,-7 -3.8659933,0 -7,3.1340067 -7,7 0,3.865993 3.1340067,7 7,7 z m 48,25 c 3.865993,0 7,-3.134007 7,-7 0,-3.865993 -3.134007,-7 -7,-7 -3.865993,0 -7,3.134007 -7,7 0,3.865993 3.134007,7 7,7 z M 16,36 c 1.656854,0 3,-1.343146 3,-3 0,-1.656854 -1.343146,-3 -3,-3 -1.656854,0 -3,1.343146 -3,3 0,1.656854 1.343146,3 3,3 z m 63,31 c 1.656854,0 3,-1.343146 3,-3 0,-1.656854 -1.343146,-3 -3,-3 -1.656854,0 -3,1.343146 -3,3 0,1.656854 1.343146,3 3,3 z M 34,90 c 1.656854,0 3,-1.343146 3,-3 0,-1.656854 -1.343146,-3 -3,-3 -1.656854,0 -3,1.343146 -3,3 0,1.656854 1.343146,3 3,3 z M 90,14 c 1.656854,0 3,-1.343146 3,-3 0,-1.6568542 -1.343146,-3 -3,-3 -1.656854,0 -3,1.3431458 -3,3 0,1.656854 1.343146,3 3,3 z M 12,86 c 2.209139,0 4,-1.790861 4,-4 0,-2.209139 -1.790861,-4 -4,-4 -2.209139,0 -4,1.790861 -4,4 0,2.209139 1.790861,4 4,4 z M 40,21 c 2.209139,0 4,-1.790861 4,-4 0,-2.209139 -1.790861,-4 -4,-4 -2.209139,0 -4,1.790861 -4,4 0,2.209139 1.790861,4 4,4 z M 63,10 c 2.761424,0 5,-2.2385763 5,-5 0,-2.7614237 -2.238576,-5 -5,-5 -2.761424,0 -5,2.2385763 -5,5 0,2.7614237 2.238576,5 5,5 z m -6,60 c 2.209139,0 4,-1.790861 4,-4 0,-2.209139 -1.790861,-4 -4,-4 -2.209139,0 -4,1.790861 -4,4 0,2.209139 1.790861,4 4,4 z m 29,22 c 2.761424,0 5,-2.238576 5,-5 0,-2.761424 -2.238576,-5 -5,-5 -2.761424,0 -5,2.238576 -5,5 0,2.761424 2.238576,5 5,5 z M 32,63 c 2.761424,0 5,-2.238576 5,-5 0,-2.761424 -2.238576,-5 -5,-5 -2.761424,0 -5,2.238576 -5,5 0,2.761424 2.238576,5 5,5 z M 89,50 c 2.761424,0 5,-2.238576 5,-5 0,-2.761424 -2.238576,-5 -5,-5 -2.761424,0 -5,2.238576 -5,5 0,2.761424 2.238576,5 5,5 z M 80,29 c 1.104569,0 2,-0.895431 2,-2 0,-1.10457 -0.895431,-2 -2,-2 -1.104569,0 -2,0.89543 -2,2 0,1.104569 0.895431,2 2,2 z M 60,91 c 1.104569,0 2,-0.895431 2,-2 0,-1.104569 -0.895431,-2 -2,-2 -1.104569,0 -2,0.895431 -2,2 0,1.104569 0.895431,2 2,2 z M 35,41 c 1.104569,0 2,-0.895431 2,-2 0,-1.104569 -0.895431,-2 -2,-2 -1.104569,0 -2,0.895431 -2,2 0,1.104569 0.895431,2 2,2 z M 12,60 c 1.10457,0 2,-0.895431 2,-2 0,-1.104569 -0.89543,-2 -2,-2 -1.104569,0 -2,0.895431 -2,2 0,1.104569 0.895431,2 2,2 z"
             id="path1299" />
        </g>
      </g>
      <g
         style="fill:url(#linearGradient1428);fill-opacity:1;fill-rule:evenodd;stroke:none;stroke-width:1"
         transform="matrix(0.62403167,0,0,0.62403167,-464.49857,908.15648)"
         id="g1309">
        <g
           style="fill:url(#linearGradient1428);fill-opacity:1"
           id="g1307">
          <path
             style="fill:url(#linearGradient1428);fill-opacity:1"
             inkscape:connector-curvature="0"
             d="m 11,18 c 3.865993,0 7,-3.134007 7,-7 0,-3.8659933 -3.134007,-7 -7,-7 -3.8659933,0 -7,3.1340067 -7,7 0,3.865993 3.1340067,7 7,7 z m 48,25 c 3.865993,0 7,-3.134007 7,-7 0,-3.865993 -3.134007,-7 -7,-7 -3.865993,0 -7,3.134007 -7,7 0,3.865993 3.134007,7 7,7 z M 16,36 c 1.656854,0 3,-1.343146 3,-3 0,-1.656854 -1.343146,-3 -3,-3 -1.656854,0 -3,1.343146 -3,3 0,1.656854 1.343146,3 3,3 z m 63,31 c 1.656854,0 3,-1.343146 3,-3 0,-1.656854 -1.343146,-3 -3,-3 -1.656854,0 -3,1.343146 -3,3 0,1.656854 1.343146,3 3,3 z M 34,90 c 1.656854,0 3,-1.343146 3,-3 0,-1.656854 -1.343146,-3 -3,-3 -1.656854,0 -3,1.343146 -3,3 0,1.656854 1.343146,3 3,3 z M 90,14 c 1.656854,0 3,-1.343146 3,-3 0,-1.6568542 -1.343146,-3 -3,-3 -1.656854,0 -3,1.3431458 -3,3 0,1.656854 1.343146,3 3,3 z M 12,86 c 2.209139,0 4,-1.790861 4,-4 0,-2.209139 -1.790861,-4 -4,-4 -2.209139,0 -4,1.790861 -4,4 0,2.209139 1.790861,4 4,4 z M 40,21 c 2.209139,0 4,-1.790861 4,-4 0,-2.209139 -1.790861,-4 -4,-4 -2.209139,0 -4,1.790861 -4,4 0,2.209139 1.790861,4 4,4 z M 63,10 c 2.761424,0 5,-2.2385763 5,-5 0,-2.7614237 -2.238576,-5 -5,-5 -2.761424,0 -5,2.2385763 -5,5 0,2.7614237 2.238576,5 5,5 z m -6,60 c 2.209139,0 4,-1.790861 4,-4 0,-2.209139 -1.790861,-4 -4,-4 -2.209139,0 -4,1.790861 -4,4 0,2.209139 1.790861,4 4,4 z m 29,22 c 2.761424,0 5,-2.238576 5,-5 0,-2.761424 -2.238576,-5 -5,-5 -2.761424,0 -5,2.238576 -5,5 0,2.761424 2.238576,5 5,5 z M 32,63 c 2.761424,0 5,-2.238576 5,-5 0,-2.761424 -2.238576,-5 -5,-5 -2.761424,0 -5,2.238576 -5,5 0,2.761424 2.238576,5 5,5 z M 89,50 c 2.761424,0 5,-2.238576 5,-5 0,-2.761424 -2.238576,-5 -5,-5 -2.761424,0 -5,2.238576 -5,5 0,2.761424 2.238576,5 5,5 z M 80,29 c 1.104569,0 2,-0.895431 2,-2 0,-1.10457 -0.895431,-2 -2,-2 -1.104569,0 -2,0.89543 -2,2 0,1.104569 0.895431,2 2,2 z M 60,91 c 1.104569,0 2,-0.895431 2,-2 0,-1.104569 -0.895431,-2 -2,-2 -1.104569,0 -2,0.895431 -2,2 0,1.104569 0.895431,2 2,2 z M 35,41 c 1.104569,0 2,-0.895431 2,-2 0,-1.104569 -0.895431,-2 -2,-2 -1.104569,0 -2,0.895431 -2,2 0,1.104569 0.895431,2 2,2 z M 12,60 c 1.10457,0 2,-0.895431 2,-2 0,-1.104569 -0.89543,-2 -2,-2 -1.104569,0 -2,0.895431 -2,2 0,1.104569 0.895431,2 2,2 z"
             id="path1305" />
        </g>
      </g>
      <g
         id="g1315"
         transform="matrix(0.62403167,0,0,0.62403167,-464.49857,966.03768)"
         style="fill:url(#linearGradient1428);fill-opacity:1;fill-rule:evenodd;stroke:none;stroke-width:1">
        <g
           id="g1313"
           style="fill:url(#linearGradient1428);fill-opacity:1">
          <path
             style="fill:url(#linearGradient1428);fill-opacity:1"
             id="path1311"
             d="m 11,18 c 3.865993,0 7,-3.134007 7,-7 0,-3.8659933 -3.134007,-7 -7,-7 -3.8659933,0 -7,3.1340067 -7,7 0,3.865993 3.1340067,7 7,7 z m 48,25 c 3.865993,0 7,-3.134007 7,-7 0,-3.865993 -3.134007,-7 -7,-7 -3.865993,0 -7,3.134007 -7,7 0,3.865993 3.134007,7 7,7 z M 16,36 c 1.656854,0 3,-1.343146 3,-3 0,-1.656854 -1.343146,-3 -3,-3 -1.656854,0 -3,1.343146 -3,3 0,1.656854 1.343146,3 3,3 z m 63,31 c 1.656854,0 3,-1.343146 3,-3 0,-1.656854 -1.343146,-3 -3,-3 -1.656854,0 -3,1.343146 -3,3 0,1.656854 1.343146,3 3,3 z M 34,90 c 1.656854,0 3,-1.343146 3,-3 0,-1.656854 -1.343146,-3 -3,-3 -1.656854,0 -3,1.343146 -3,3 0,1.656854 1.343146,3 3,3 z M 90,14 c 1.656854,0 3,-1.343146 3,-3 0,-1.6568542 -1.343146,-3 -3,-3 -1.656854,0 -3,1.3431458 -3,3 0,1.656854 1.343146,3 3,3 z M 12,86 c 2.209139,0 4,-1.790861 4,-4 0,-2.209139 -1.790861,-4 -4,-4 -2.209139,0 -4,1.790861 -4,4 0,2.209139 1.790861,4 4,4 z M 40,21 c 2.209139,0 4,-1.790861 4,-4 0,-2.209139 -1.790861,-4 -4,-4 -2.209139,0 -4,1.790861 -4,4 0,2.209139 1.790861,4 4,4 z M 63,10 c 2.761424,0 5,-2.2385763 5,-5 0,-2.7614237 -2.238576,-5 -5,-5 -2.761424,0 -5,2.2385763 -5,5 0,2.7614237 2.238576,5 5,5 z m -6,60 c 2.209139,0 4,-1.790861 4,-4 0,-2.209139 -1.790861,-4 -4,-4 -2.209139,0 -4,1.790861 -4,4 0,2.209139 1.790861,4 4,4 z m 29,22 c 2.761424,0 5,-2.238576 5,-5 0,-2.761424 -2.238576,-5 -5,-5 -2.761424,0 -5,2.238576 -5,5 0,2.761424 2.238576,5 5,5 z M 32,63 c 2.761424,0 5,-2.238576 5,-5 0,-2.761424 -2.238576,-5 -5,-5 -2.761424,0 -5,2.238576 -5,5 0,2.761424 2.238576,5 5,5 z M 89,50 c 2.761424,0 5,-2.238576 5,-5 0,-2.761424 -2.238576,-5 -5,-5 -2.761424,0 -5,2.238576 -5,5 0,2.761424 2.238576,5 5,5 z M 80,29 c 1.104569,0 2,-0.895431 2,-2 0,-1.10457 -0.895431,-2 -2,-2 -1.104569,0 -2,0.89543 -2,2 0,1.104569 0.895431,2 2,2 z M 60,91 c 1.104569,0 2,-0.895431 2,-2 0,-1.104569 -0.895431,-2 -2,-2 -1.104569,0 -2,0.895431 -2,2 0,1.104569 0.895431,2 2,2 z M 35,41 c 1.104569,0 2,-0.895431 2,-2 0,-1.104569 -0.895431,-2 -2,-2 -1.104569,0 -2,0.895431 -2,2 0,1.104569 0.895431,2 2,2 z M 12,60 c 1.10457,0 2,-0.895431 2,-2 0,-1.104569 -0.89543,-2 -2,-2 -1.104569,0 -2,0.895431 -2,2 0,1.104569 0.895431,2 2,2 z"
             inkscape:connector-curvature="0" />
        </g>
      </g>
      <g
         style="fill:url(#linearGradient1428);fill-opacity:1;fill-rule:evenodd;stroke:none;stroke-width:1"
         transform="matrix(0.62403167,0,0,0.62403167,-464.49857,1026.1031)"
         id="g1321">
        <g
           style="fill:url(#linearGradient1428);fill-opacity:1"
           id="g1319">
          <path
             style="fill:url(#linearGradient1428);fill-opacity:1"
             inkscape:connector-curvature="0"
             d="m 11,18 c 3.865993,0 7,-3.134007 7,-7 0,-3.8659933 -3.134007,-7 -7,-7 -3.8659933,0 -7,3.1340067 -7,7 0,3.865993 3.1340067,7 7,7 z m 48,25 c 3.865993,0 7,-3.134007 7,-7 0,-3.865993 -3.134007,-7 -7,-7 -3.865993,0 -7,3.134007 -7,7 0,3.865993 3.134007,7 7,7 z M 16,36 c 1.656854,0 3,-1.343146 3,-3 0,-1.656854 -1.343146,-3 -3,-3 -1.656854,0 -3,1.343146 -3,3 0,1.656854 1.343146,3 3,3 z m 63,31 c 1.656854,0 3,-1.343146 3,-3 0,-1.656854 -1.343146,-3 -3,-3 -1.656854,0 -3,1.343146 -3,3 0,1.656854 1.343146,3 3,3 z M 34,90 c 1.656854,0 3,-1.343146 3,-3 0,-1.656854 -1.343146,-3 -3,-3 -1.656854,0 -3,1.343146 -3,3 0,1.656854 1.343146,3 3,3 z M 90,14 c 1.656854,0 3,-1.343146 3,-3 0,-1.6568542 -1.343146,-3 -3,-3 -1.656854,0 -3,1.3431458 -3,3 0,1.656854 1.343146,3 3,3 z M 12,86 c 2.209139,0 4,-1.790861 4,-4 0,-2.209139 -1.790861,-4 -4,-4 -2.209139,0 -4,1.790861 -4,4 0,2.209139 1.790861,4 4,4 z M 40,21 c 2.209139,0 4,-1.790861 4,-4 0,-2.209139 -1.790861,-4 -4,-4 -2.209139,0 -4,1.790861 -4,4 0,2.209139 1.790861,4 4,4 z M 63,10 c 2.761424,0 5,-2.2385763 5,-5 0,-2.7614237 -2.238576,-5 -5,-5 -2.761424,0 -5,2.2385763 -5,5 0,2.7614237 2.238576,5 5,5 z m -6,60 c 2.209139,0 4,-1.790861 4,-4 0,-2.209139 -1.790861,-4 -4,-4 -2.209139,0 -4,1.790861 -4,4 0,2.209139 1.790861,4 4,4 z m 29,22 c 2.761424,0 5,-2.238576 5,-5 0,-2.761424 -2.238576,-5 -5,-5 -2.761424,0 -5,2.238576 -5,5 0,2.761424 2.238576,5 5,5 z M 32,63 c 2.761424,0 5,-2.238576 5,-5 0,-2.761424 -2.238576,-5 -5,-5 -2.761424,0 -5,2.238576 -5,5 0,2.761424 2.238576,5 5,5 z M 89,50 c 2.761424,0 5,-2.238576 5,-5 0,-2.761424 -2.238576,-5 -5,-5 -2.761424,0 -5,2.238576 -5,5 0,2.761424 2.238576,5 5,5 z M 80,29 c 1.104569,0 2,-0.895431 2,-2 0,-1.10457 -0.895431,-2 -2,-2 -1.104569,0 -2,0.89543 -2,2 0,1.104569 0.895431,2 2,2 z M 60,91 c 1.104569,0 2,-0.895431 2,-2 0,-1.104569 -0.895431,-2 -2,-2 -1.104569,0 -2,0.895431 -2,2 0,1.104569 0.895431,2 2,2 z M 35,41 c 1.104569,0 2,-0.895431 2,-2 0,-1.104569 -0.895431,-2 -2,-2 -1.104569,0 -2,0.895431 -2,2 0,1.104569 0.895431,2 2,2 z M 12,60 c 1.10457,0 2,-0.895431 2,-2 0,-1.104569 -0.89543,-2 -2,-2 -1.104569,0 -2,0.895431 -2,2 0,1.104569 0.895431,2 2,2 z"
             id="path1317" />
        </g>
      </g>
      <g
         id="g1327"
         transform="matrix(0.62403167,0,0,0.62403167,-404.43318,908.15648)"
         style="fill:url(#linearGradient1428);fill-opacity:1;fill-rule:evenodd;stroke:none;stroke-width:1">
        <g
           id="g1325"
           style="fill:url(#linearGradient1428);fill-opacity:1">
          <path
             style="fill:url(#linearGradient1428);fill-opacity:1"
             id="path1323"
             d="m 11,18 c 3.865993,0 7,-3.134007 7,-7 0,-3.8659933 -3.134007,-7 -7,-7 -3.8659933,0 -7,3.1340067 -7,7 0,3.865993 3.1340067,7 7,7 z m 48,25 c 3.865993,0 7,-3.134007 7,-7 0,-3.865993 -3.134007,-7 -7,-7 -3.865993,0 -7,3.134007 -7,7 0,3.865993 3.134007,7 7,7 z M 16,36 c 1.656854,0 3,-1.343146 3,-3 0,-1.656854 -1.343146,-3 -3,-3 -1.656854,0 -3,1.343146 -3,3 0,1.656854 1.343146,3 3,3 z m 63,31 c 1.656854,0 3,-1.343146 3,-3 0,-1.656854 -1.343146,-3 -3,-3 -1.656854,0 -3,1.343146 -3,3 0,1.656854 1.343146,3 3,3 z M 34,90 c 1.656854,0 3,-1.343146 3,-3 0,-1.656854 -1.343146,-3 -3,-3 -1.656854,0 -3,1.343146 -3,3 0,1.656854 1.343146,3 3,3 z M 90,14 c 1.656854,0 3,-1.343146 3,-3 0,-1.6568542 -1.343146,-3 -3,-3 -1.656854,0 -3,1.3431458 -3,3 0,1.656854 1.343146,3 3,3 z M 12,86 c 2.209139,0 4,-1.790861 4,-4 0,-2.209139 -1.790861,-4 -4,-4 -2.209139,0 -4,1.790861 -4,4 0,2.209139 1.790861,4 4,4 z M 40,21 c 2.209139,0 4,-1.790861 4,-4 0,-2.209139 -1.790861,-4 -4,-4 -2.209139,0 -4,1.790861 -4,4 0,2.209139 1.790861,4 4,4 z M 63,10 c 2.761424,0 5,-2.2385763 5,-5 0,-2.7614237 -2.238576,-5 -5,-5 -2.761424,0 -5,2.2385763 -5,5 0,2.7614237 2.238576,5 5,5 z m -6,60 c 2.209139,0 4,-1.790861 4,-4 0,-2.209139 -1.790861,-4 -4,-4 -2.209139,0 -4,1.790861 -4,4 0,2.209139 1.790861,4 4,4 z m 29,22 c 2.761424,0 5,-2.238576 5,-5 0,-2.761424 -2.238576,-5 -5,-5 -2.761424,0 -5,2.238576 -5,5 0,2.761424 2.238576,5 5,5 z M 32,63 c 2.761424,0 5,-2.238576 5,-5 0,-2.761424 -2.238576,-5 -5,-5 -2.761424,0 -5,2.238576 -5,5 0,2.761424 2.238576,5 5,5 z M 89,50 c 2.761424,0 5,-2.238576 5,-5 0,-2.761424 -2.238576,-5 -5,-5 -2.761424,0 -5,2.238576 -5,5 0,2.761424 2.238576,5 5,5 z M 80,29 c 1.104569,0 2,-0.895431 2,-2 0,-1.10457 -0.895431,-2 -2,-2 -1.104569,0 -2,0.89543 -2,2 0,1.104569 0.895431,2 2,2 z M 60,91 c 1.104569,0 2,-0.895431 2,-2 0,-1.104569 -0.895431,-2 -2,-2 -1.104569,0 -2,0.895431 -2,2 0,1.104569 0.895431,2 2,2 z M 35,41 c 1.104569,0 2,-0.895431 2,-2 0,-1.104569 -0.895431,-2 -2,-2 -1.104569,0 -2,0.895431 -2,2 0,1.104569 0.895431,2 2,2 z M 12,60 c 1.10457,0 2,-0.895431 2,-2 0,-1.104569 -0.89543,-2 -2,-2 -1.104569,0 -2,0.895431 -2,2 0,1.104569 0.895431,2 2,2 z"
             inkscape:connector-curvature="0" />
        </g>
      </g>
      <g
         style="fill:url(#linearGradient1428);fill-opacity:1;fill-rule:evenodd;stroke:none;stroke-width:1"
         transform="matrix(0.62403167,0,0,0.62403167,-404.43318,966.03768)"
         id="g1333">
        <g
           style="fill:url(#linearGradient1428);fill-opacity:1"
           id="g1331">
          <path
             style="fill:url(#linearGradient1428);fill-opacity:1"
             inkscape:connector-curvature="0"
             d="m 11,18 c 3.865993,0 7,-3.134007 7,-7 0,-3.8659933 -3.134007,-7 -7,-7 -3.8659933,0 -7,3.1340067 -7,7 0,3.865993 3.1340067,7 7,7 z m 48,25 c 3.865993,0 7,-3.134007 7,-7 0,-3.865993 -3.134007,-7 -7,-7 -3.865993,0 -7,3.134007 -7,7 0,3.865993 3.134007,7 7,7 z M 16,36 c 1.656854,0 3,-1.343146 3,-3 0,-1.656854 -1.343146,-3 -3,-3 -1.656854,0 -3,1.343146 -3,3 0,1.656854 1.343146,3 3,3 z m 63,31 c 1.656854,0 3,-1.343146 3,-3 0,-1.656854 -1.343146,-3 -3,-3 -1.656854,0 -3,1.343146 -3,3 0,1.656854 1.343146,3 3,3 z M 34,90 c 1.656854,0 3,-1.343146 3,-3 0,-1.656854 -1.343146,-3 -3,-3 -1.656854,0 -3,1.343146 -3,3 0,1.656854 1.343146,3 3,3 z M 90,14 c 1.656854,0 3,-1.343146 3,-3 0,-1.6568542 -1.343146,-3 -3,-3 -1.656854,0 -3,1.3431458 -3,3 0,1.656854 1.343146,3 3,3 z M 12,86 c 2.209139,0 4,-1.790861 4,-4 0,-2.209139 -1.790861,-4 -4,-4 -2.209139,0 -4,1.790861 -4,4 0,2.209139 1.790861,4 4,4 z M 40,21 c 2.209139,0 4,-1.790861 4,-4 0,-2.209139 -1.790861,-4 -4,-4 -2.209139,0 -4,1.790861 -4,4 0,2.209139 1.790861,4 4,4 z M 63,10 c 2.761424,0 5,-2.2385763 5,-5 0,-2.7614237 -2.238576,-5 -5,-5 -2.761424,0 -5,2.2385763 -5,5 0,2.7614237 2.238576,5 5,5 z m -6,60 c 2.209139,0 4,-1.790861 4,-4 0,-2.209139 -1.790861,-4 -4,-4 -2.209139,0 -4,1.790861 -4,4 0,2.209139 1.790861,4 4,4 z m 29,22 c 2.761424,0 5,-2.238576 5,-5 0,-2.761424 -2.238576,-5 -5,-5 -2.761424,0 -5,2.238576 -5,5 0,2.761424 2.238576,5 5,5 z M 32,63 c 2.761424,0 5,-2.238576 5,-5 0,-2.761424 -2.238576,-5 -5,-5 -2.761424,0 -5,2.238576 -5,5 0,2.761424 2.238576,5 5,5 z M 89,50 c 2.761424,0 5,-2.238576 5,-5 0,-2.761424 -2.238576,-5 -5,-5 -2.761424,0 -5,2.238576 -5,5 0,2.761424 2.238576,5 5,5 z M 80,29 c 1.104569,0 2,-0.895431 2,-2 0,-1.10457 -0.895431,-2 -2,-2 -1.104569,0 -2,0.89543 -2,2 0,1.104569 0.895431,2 2,2 z M 60,91 c 1.104569,0 2,-0.895431 2,-2 0,-1.104569 -0.895431,-2 -2,-2 -1.104569,0 -2,0.895431 -2,2 0,1.104569 0.895431,2 2,2 z M 35,41 c 1.104569,0 2,-0.895431 2,-2 0,-1.104569 -0.895431,-2 -2,-2 -1.104569,0 -2,0.895431 -2,2 0,1.104569 0.895431,2 2,2 z M 12,60 c 1.10457,0 2,-0.895431 2,-2 0,-1.104569 -0.89543,-2 -2,-2 -1.104569,0 -2,0.895431 -2,2 0,1.104569 0.895431,2 2,2 z"
             id="path1329" />
        </g>
      </g>
      <g
         id="g1339"
         transform="matrix(0.62403167,0,0,0.62403167,-404.43318,1026.1031)"
         style="fill:url(#linearGradient1428);fill-opacity:1;fill-rule:evenodd;stroke:none;stroke-width:1">
        <g
           id="g1337"
           style="fill:url(#linearGradient1428);fill-opacity:1">
          <path
             style="fill:url(#linearGradient1428);fill-opacity:1"
             id="path1335"
             d="m 11,18 c 3.865993,0 7,-3.134007 7,-7 0,-3.8659933 -3.134007,-7 -7,-7 -3.8659933,0 -7,3.1340067 -7,7 0,3.865993 3.1340067,7 7,7 z m 48,25 c 3.865993,0 7,-3.134007 7,-7 0,-3.865993 -3.134007,-7 -7,-7 -3.865993,0 -7,3.134007 -7,7 0,3.865993 3.134007,7 7,7 z M 16,36 c 1.656854,0 3,-1.343146 3,-3 0,-1.656854 -1.343146,-3 -3,-3 -1.656854,0 -3,1.343146 -3,3 0,1.656854 1.343146,3 3,3 z m 63,31 c 1.656854,0 3,-1.343146 3,-3 0,-1.656854 -1.343146,-3 -3,-3 -1.656854,0 -3,1.343146 -3,3 0,1.656854 1.343146,3 3,3 z M 34,90 c 1.656854,0 3,-1.343146 3,-3 0,-1.656854 -1.343146,-3 -3,-3 -1.656854,0 -3,1.343146 -3,3 0,1.656854 1.343146,3 3,3 z M 90,14 c 1.656854,0 3,-1.343146 3,-3 0,-1.6568542 -1.343146,-3 -3,-3 -1.656854,0 -3,1.3431458 -3,3 0,1.656854 1.343146,3 3,3 z M 12,86 c 2.209139,0 4,-1.790861 4,-4 0,-2.209139 -1.790861,-4 -4,-4 -2.209139,0 -4,1.790861 -4,4 0,2.209139 1.790861,4 4,4 z M 40,21 c 2.209139,0 4,-1.790861 4,-4 0,-2.209139 -1.790861,-4 -4,-4 -2.209139,0 -4,1.790861 -4,4 0,2.209139 1.790861,4 4,4 z M 63,10 c 2.761424,0 5,-2.2385763 5,-5 0,-2.7614237 -2.238576,-5 -5,-5 -2.761424,0 -5,2.2385763 -5,5 0,2.7614237 2.238576,5 5,5 z m -6,60 c 2.209139,0 4,-1.790861 4,-4 0,-2.209139 -1.790861,-4 -4,-4 -2.209139,0 -4,1.790861 -4,4 0,2.209139 1.790861,4 4,4 z m 29,22 c 2.761424,0 5,-2.238576 5,-5 0,-2.761424 -2.238576,-5 -5,-5 -2.761424,0 -5,2.238576 -5,5 0,2.761424 2.238576,5 5,5 z M 32,63 c 2.761424,0 5,-2.238576 5,-5 0,-2.761424 -2.238576,-5 -5,-5 -2.761424,0 -5,2.238576 -5,5 0,2.761424 2.238576,5 5,5 z M 89,50 c 2.761424,0 5,-2.238576 5,-5 0,-2.761424 -2.238576,-5 -5,-5 -2.761424,0 -5,2.238576 -5,5 0,2.761424 2.238576,5 5,5 z M 80,29 c 1.104569,0 2,-0.895431 2,-2 0,-1.10457 -0.895431,-2 -2,-2 -1.104569,0 -2,0.89543 -2,2 0,1.104569 0.895431,2 2,2 z M 60,91 c 1.104569,0 2,-0.895431 2,-2 0,-1.104569 -0.895431,-2 -2,-2 -1.104569,0 -2,0.895431 -2,2 0,1.104569 0.895431,2 2,2 z M 35,41 c 1.104569,0 2,-0.895431 2,-2 0,-1.104569 -0.895431,-2 -2,-2 -1.104569,0 -2,0.895431 -2,2 0,1.104569 0.895431,2 2,2 z M 12,60 c 1.10457,0 2,-0.895431 2,-2 0,-1.104569 -0.89543,-2 -2,-2 -1.104569,0 -2,0.895431 -2,2 0,1.104569 0.895431,2 2,2 z"
             inkscape:connector-curvature="0" />
        </g>
      </g>
    </g>
  </g>
</svg>
